/* XPM */
static char * Character_xpm[] = {
"120 120 25 1",
" 	c #162527",
".	c #0F1A1B",
"+	c #1D2E30",
"@	c #243A3C",
"#	c #1F1A1A",
"$	c #425C6B",
"%	c #607581",
"&	c #C5D0D5",
"*	c #9BADB7",
"=	c #6F828D",
"-	c #7F909A",
";	c #C9C0BE",
">	c #2D0704",
",	c #FFFFFF",
"'	c #621914",
")	c #F2DAD2",
"!	c #B19E9A",
"~	c #BE9B97",
"{	c #8D6534",
"]	c #7B4E16",
"^	c #672020",
"/	c #431A0B",
"(	c #8F3838",
"_	c #946835",
":	c #B78C61",
"                 ...  +++  +++       ...       ...  ...  ...                 ...       ...  ...  ...                 ...",
"                 ...  +++  +++       ...       ...  ...  ...                 ...       ...  ...  ...                 ...",
"                 ...  +++  +++       ...       ...  ...  ...                 ...       ...  ...  ...                 ...",
"                 ...  +++  +++       ...       ...  ...  ...                 ...       ...  ...  ...                 ...",
"                 ...  +++  +++       ...       ...  ...  ...                 ...       ...  ...  ...                 ...",
"     ++++++++++++...+++++++++++++++++...+++++++++++++++++...+++++++++++++++++...+++++++++++++++++...                 ...",
"     ++++++++++++...+++++++++++++++++...+++++++++++++++++...+++++++++++++++++...+++++++++++++++++...                 ...",
"     ++++++++++++...+++++++++++++++++...+++++++++++++++++...+++++++++++++++++...+++++++++++++++++...                 ...",
"     ++++++++++++   +++++++++++++++++   +++++++++++++++++   +++++++++++++++++   +++++++++++++++++...                 ...",
"     ++++++++++++   +++++++++++++++++   +++++++++++++++++   +++++++++++++++++   +++++++++++++++++...                 ...",
"     ++++++++++++   +++++++++++++++++   +++++++++++++++++   +++++++++++++++++   +++++++++++++++++...                 ...",
"     ++++++++++++   +++++++++++++++++   +++++++++++++++++   +++++++++++++++++   +++++++++++++++++...                 ...",
"     ++++++++++++   +++++++++++++++++   +++++++++++++++++   +++++++++++++++++   +++++++++++++++++...                 ...",
"+++++++++++++++++   +++++++++++++++++   +++++++++++++++++   +++++++++++++++++   +++++++++++++++++...                 ...",
"+++++++++++++++++   +++++++++++++++++   +++++++++++++++++   +++++++++++++++++   +++++++++++++++++...                 ...",
"     ++++++++++++   @@@@@@@@@@@@@@@@@   +++++++++++++++++   @@@@@@@@@@@@@@@@@   +++++++++++++++++...+++++++++++++++++...",
"     ++++++++++++   @@@@@@@@@@@@@@@@@   +++++++++++++++++   @@@@@@@@@@@@@@@@@   +++++++++++++++++...+++++++++++++++++...",
"     ++++++++++++   @@@@@@@@@@@@@@@@@   +++++++++++++++++   @@@@@@@@@@@@@@@@@   +++++++++++++++++...+++++++++++++++++...",
".......                                                                                     ............................",
".......                                                                                     ............................",
"     ++++++++++@@   @@@@@@@@@@@@@@@@@   +++++++++++++++++   @@@@@@@@@@@@@@@@@+++@@@@@@@@@@@@@@@@@...+++++++++++++++++...",
"     ++++++++++@@   @@@@@@@@@@@@@@@@@   ++++++++++++++++#############@@@@@@@@+++@@@@@@@@@@@@@@@@@...+++++++++++++++++...",
"     ++++++++++@@   @@@@@@@@@@@@@@@@@   ++++++++++++++++#############@@@@@@@@+++@@@@@@@@@@@@@@@@@...+++++++++++++++++...",
"+++++++++++++++@@   @@@@@@@@@@@@@@@@@   @@@@@@@@@@@@@@@@#############@@@@@@@@+++@@@@@@@@@@@@@@@@@...+++++++++++++++++...",
"+++++++++++++++@@   @@@@@@@@@@@@@@@@@   @@@@@@@@@@@@@@@@#############@@@@@@@@+++@@@@@@@@@@@@@@@@@...+++++++++++++++++...",
"     ++++++++++@@   @@@@@@@@@@@@@@@@@+++@@@@@@@@@@@@####$$$$%%%%%########@@@@+++@@@@@@@@@@@@@@@@@   +++++++++++++++++...",
"     ++++++++++@@   @@@@@@@@@@@@@@@@@+++@@@@@@@@@@@@####$$$$%%%%%########@@@@+++@@@@@@@@@@@@@@@@@   +++++++++++++++++...",
"     ++++++++++@@   @@@@@@@@@@@@@@@@@+++@@@@@@@@@@@@####$$$$%%%%%########@@@@+++@@@@@@@@@@@@@@@@@   +++++++++++++++++...",
"     ++++++++++@@   @@@@@@@@@@@@@@@@@+++@@@@@@@@@@@@####$$$$%%%%%########@@@@+++@@@@@@@@@@@@@@@@@   +++++++++++++++++...",
"     ++++++++++@@   @@@@@@@@@@@@@@@@@+++@@@@@@@@@@@@####$$$$%%%%%########@@@@+++@@@@@@@@@@@@@@@@@   +++++++++++++++++...",
"     ++++++++++@@   @@@@@@@@@@@@@@@@@+++@@@@@@@#####&&&&%%%%$$$$$####%%%%####+++@@@@@@@@@@@@@@@@@   +++++++++++++++++...",
"     ++++++++++@@   @@@@@@@@@@@@@@@@@+++@@@@@@@#####&&&&%%%%$$$$$####%%%%####+++@@@@@@@@@@@@@@@@@   +++++++++++++++++...",
"     ++++++++++@@   @@@@@@@@@@@@@@@@@+++@@@@@@@#####&&&&%%%%$$$$$####%%%%####+++@@@@@@@@@@@@@@@@@   +++++++++++++++++...",
"     ++++++++++@@   @@@@@@@@@@@@@@@@@+++@@@@@@@#####&&&&%%%%$$$$$####%%%%####+++@@@@@@@@@@@@@@@@@   +++++++++++++++++...",
"     ++++++++++@@   @@@@@@@@@@@@@@@@@+++@@@####*****&&&&&&&&%%%%%****####%%%%#####@@@@@@@@@@@@@@@   +++++++++++++++++...",
"     ++++++++++@@   @@@@@@@@@@@@@@@@@+++@@@####*****&&&&&&&&%%%%%****####%%%%#####@@@@@@@@@@@@@@@   +++++++++++++++++...",
"     ++++++++++@@   @@@@@@@@@@@@@@@@@+++@@@####*****&&&&&&&&%%%%%****####%%%%#####@@@@@@@@@@@@@@@   +++++++++++++++++...",
"     ++++++++++@@   @@@@@@@@@@@@@@@@@+++@@@####*****&&&&&&&&%%%%%****####%%%%#####@@@@@@@@@@@@@@@   +++++++++++++++++...",
".......             +++++++++++++++++++####====*****&&&&&&&&-----****$$$$%%%%#####+++++++++++++++               ........",
".......             +++++++++++++++++++####====*****&&&&&&&&-----****$$$$%%%%#####+++++++++++++++               ........",
".....++++++++++++   @@@@@@@@@@@@@@@@@++####====*****&&&&&&&&-----****$$$$%%%%#####@@@@@@@@@@@@@@@   @@+++++++++++++++...",
".....++++++++++++   @@@@@@@@@@@@@@@@@++####====*****&&&&&&&&-----****$$$$%%%%#####@@@@@@@@@@@@@@@   @@+++++++++++++++...",
".....++++++++++++   @@@@@@@@@@@@@@@@@++####====*****&&&&&&&&-----****$$$$%%%%#####@@@@@@@@@@@@@@@   @@+++++++++++++++...",
".....++++++++++++   @@@@@@@@@@@@@@@@@++####=========********-----$$$$####%%%%#####@@@@@@@@@@@@@@@   @@+++++++++++++++...",
".....++++++++++++   @@@@@@@@@@@@@@@@@++####=========********-----$$$$####%%%%#####@@@@@@@@@@@@@@@   @@+++++++++++++++...",
"     ++++++++++++   @@@@@@@@@@@@@@@@@++####=========********-----$$$$####%%%%#####@@@@@@@@@@@@@@@   @@+++++++++++++++...",
"     ++++++++++++   @@@@@@@@@@@@@@@@@++####=========********-----$$$$####%%%%#####@@@@@@@@@@@@@@@   @@+++++++++++++++...",
"     ++++++++++++   @@@@@@@@@@#############%%%%=========$$$$$$$$$$$$$####%%%%#####@@@@@@@@@@@@@@@   @@+++++++++++++++...",
".....++++++++++++   @@@@@@@@@@#############%%%%=========$$$$$$$$$$$$$####%%%%#####@@@@@@@@@@@@@@@   @@+++++++++++++++...",
".....++++++++++++   @@@@@@@@@@#############%%%%=========$$$$$$$$$$$$$####%%%%#####@@@@@@@@@@@@@@@   @@+++++++++++++++...",
"     ++++++++++++   @@@@@@@@@@#############%%%%=========$$$$$$$$$$$$$####%%%%#####@@@@@@@@@@@@@@@   @@+++++++++++++++...",
"     ++++++++++++   @@@@@@#########;;;;####$$$$%%%%%$$$$>>>>>>>>>$$$$####$$$$$$$$$####@@@@@@@@@@@   @@+++++++++++++++...",
"     ++++++++++++   @@@@@@#########;;;;####$$$$%%%%%$$$$>>>>>>>>>$$$$####$$$$$$$$$####@@@@@@@@@@@   @@+++++++++++++++...",
"     ++++++++++++   @@@@@@#########;;;;####$$$$%%%%%$$$$>>>>>>>>>$$$$####$$$$$$$$$####@@@@@@@@@@@...@@+++++++++++++++...",
"     ++++++++++++   @@@@@@#########;;;;####$$$$%%%%%$$$$>>>>>>>>>$$$$####$$$$$$$$$####@@@@@@@@@@@...@@+++++++++++++++...",
"     ++++++++++++   @@########;;;;;####$$$$$$$$$$$$$####,,,,'''''))))))))####$$$$$####@@@@@@@@@@@...@@+++++++++++++++...",
"     ++++++++++++   @@########;;;;;####$$$$$$$$$$$$$####,,,,'''''))))))))####$$$$$####@@@@@@@@@@@...@@+++++++++++++++...",
"     ++++++++++++   @@########;;;;;####$$$$$$$$$$$$$####,,,,'''''))))))))####$$$$$####@@@@@@@@@@@...@@+++++++++++++++...",
".......               ########;;;;;####$$$$$$$$$$$$$####,,,,'''''))))))))####$$$$$####+++++++++  ...            ........",
".......               ########;;;;;####$$$$$$$$$$$$$####,,,,'''''))))))))####$$$$$####+++++++++  ...            ........",
"     ++++++++++@@   @@####;;;;#####!!!!#############~~~~)))))))))))))))))))))#####@@@@@@@@@@@@@@@...+++++++++++++++++...",
"     ++++++++++@@   @@####;;;;#####!!!!#############~~~~)))))))))))))))))))))#####@@@@@@@@@@@@@@@...+++++++++++++++++...",
"     ++++++++++@@   @@####;;;;#####!!!!#############~~~~)))))))))))))))))))))#####@@@@@@@@@@@@@@@...+++++++++++++++++...",
"     ++++++++++@@   @@####;;;;#####!!!!#############~~~~)))))))))))))))))))))#####@@@@@@@@@@@@@@@   +++++++++++++++++...",
"     ++++++++++@@   @@@@@@####!!!!!####{{{{]]]]#####%%%%%%%%*****%%%%****####+++@@@@@@@@@@@@@@@@@   +++++++++++++++++...",
"     ++++++++++@@   @@@@@@####!!!!!####{{{{]]]]#####%%%%%%%%*****%%%%****####+++@@@@@@@@@@@@@@@@@   +++++++++++++++++...",
"     ++++++++++@@   @@@@@@####!!!!!####{{{{]]]]#####%%%%%%%%*****%%%%****####+++@@@@@@@@@@@@@@@@@   +++++++++++++++++...",
"     ++++++++++@@   @@@@@@####!!!!!####{{{{]]]]#####%%%%%%%%*****%%%%****####+++@@@@@@@@@@@@@@@@@   +++++++++++++++++...",
"     ++++++++++@@   @@@@@@@@@@#####{{{{]]]]####^^^^^####%%%%%%%%%****####^^^^#####@@@@@@@@@@@@@@@   +++++++++++++++++...",
"     ++++++++++@@   @@@@@@@@@@#####{{{{]]]]####^^^^^####%%%%%%%%%****####^^^^#####@@@@@@@@@@@@@@@   +++++++++++++++++...",
"     ++++++++++@@   @@@@@@@@@@#####{{{{]]]]####^^^^^####%%%%%%%%%****####^^^^#####@@@@@@@@@@@@@@@   +++++++++++++++++...",
"     ++++++++++@@   @@@@@@@@@@#####{{{{]]]]####^^^^^####%%%%%%%%%****####^^^^#####@@@@@@@@@@@@@@@   +++++++++++++++++...",
"     ++++++++++@@   @@@@@@@@@@#####{{{{]]]]####^^^^^####%%%%%%%%%****####^^^^#####@@@@@@@@@@@@@@@   +++++++++++++++++...",
"     ++++++++++@@   @@@@@@@@@@@@@@@########^^^^^^^^^####////^^^^^^^^^((((#########@@@@@@@@@@@@@@@   +++++++++++++++++...",
"     ++++++++++@@   @@@@@@@@@@@@@@@########^^^^^^^^^####////^^^^^^^^^((((#########@@@@@@@@@@@@@@@   +++++++++++++++++...",
"     ++++++++++@@   @@@@@@@@@@@@@@@########^^^^^^^^^####////^^^^^^^^^((((#########@@@@@@@@@@@@@@@   +++++++++++++++++...",
"     ++++++++++@@   @@@@@@@@@@@@@@@########^^^^^^^^^####////^^^^^^^^^((((#########@@@@@@@@@@@@@@@   +++++++++++++++++...",
"     ++++++++++@@   @@@@@@@@@@@@@@@####%%%%****#####////^^^^(((((((((^^^^####%%%%%####@@@@@@@@@@@   +++++++++++++++++...",
".......             +++++++++++++++####%%%%****#####////^^^^(((((((((^^^^####%%%%%####+++++++++++               ........",
".......             +++++++++++++++####%%%%****#####////^^^^(((((((((^^^^####%%%%%####+++++++++++               ........",
".....++++++++++++   @@@@@@@@@@@@@@@####%%%%****#####////^^^^(((((((((^^^^####%%%%%####@@@@@@@@@@@   @@+++++++++++++++...",
".....++++++++++++   @@@@@@@@@@@@@@@####%%%%%%%%#####]]]]]]]]_________::::####%%%%%####@@@@@@@@@@@   @@+++++++++++++++...",
".....++++++++++++   @@@@@@@@@@@@@@@####%%%%%%%%#####]]]]]]]]_________::::####%%%%%####@@@@@@@@@@@   @@+++++++++++++++...",
".....++++++++++++   @@@@@@@@@@@@@@@####%%%%%%%%#####]]]]]]]]_________::::####%%%%%####@@@@@@@@@@@   @@+++++++++++++++...",
".....++++++++++++   @@@@@@@@@@@@@@@####%%%%%%%%#####]]]]]]]]_________::::####%%%%%####@@@@@@@@@@@   @@+++++++++++++++...",
"     ++++++++++++   @@@@@@@@@@@@@@@@@++########$$$$$$$$$%%%%/////////****#########@@@@@@@@@@@@@@@   @@+++++++++++++++...",
"     ++++++++++++   @@@@@@@@@@@@@@@@@++########$$$$$$$$$%%%%/////////****#########@@@@@@@@@@@@@@@   @@+++++++++++++++...",
"     ++++++++++++   @@@@@@@@@@@@@@@@@++########$$$$$$$$$%%%%/////////****#########@@@@@@@@@@@@@@@   @@+++++++++++++++...",
".....++++++++++++   @@@@@@@@@@@@@@@@@++########$$$$$$$$$%%%%/////////****#########@@@@@@@@@@@@@@@   @@+++++++++++++++...",
".....++++++++++++   @@@@@@@@@@@@@@@@@++########$$$$$$$$$%%%%/////////****#########@@@@@@@@@@@@@@@   @@+++++++++++++++...",
"     ++++++++++++   @@@@@@@@@@@@@@@@@+++@@@@@@@#####////////#########^^^^####+++@@@@@@@@@@@@@@@@@   @@+++++++++++++++...",
"     ++++++++++++   @@@@@@@@@@@@@@@@@+++@@@@@@@#####////////#########^^^^####+++@@@@@@@@@@@@@@@@@   @@+++++++++++++++...",
"     ++++++++++++   @@@@@@@@@@@@@@@@@+++@@@@@@@#####////////#########^^^^####+++@@@@@@@@@@@@@@@@@   @@+++++++++++++++...",
"     ++++++++++++   @@@@@@@@@@@@@@@@@+++@@@@@@@#####////////#########^^^^####+++@@@@@@@@@@@@@@@@@...@@+++++++++++++++...",
"     ++++++++++++   @@@@@@@@@@@@@@@@@+++@@@@@@@#####////####@@@@@####^^^^####+++@@@@@@@@@@@@@@@@@...@@+++++++++++++++...",
"     ++++++++++++   @@@@@@@@@@@@@@@@@+++@@@@@@@#####////####@@@@@####^^^^####+++@@@@@@@@@@@@@@@@@...@@+++++++++++++++...",
"     ++++++++++++   @@@@@@@@@@@@@@@@@+++@@@@@@@#####////####@@@@@####^^^^####+++@@@@@@@@@@@@@@@@@...@@+++++++++++++++...",
"     ++++++++++++   @@@@@@@@@@@@@@@@@+++@@@@@@@#####////####@@@@@####^^^^####+++@@@@@@@@@@@@@@@@@...@@+++++++++++++++...",
".......               +++++++++++++++++++++++++++++++++++++++++++++++++++++++++++++++++++++++++  ...            ........",
".......               +++++++++++++++++++++++++++++++++++++++++++++++++++++++++++++++++++++++++  ...            ........",
"     ++++++++++@@   @@@@@@@@@@@@@@@@@+++@@@@@@@@@@@@@@@@@+++@@@@@@@@@@@@@@@@@+++@@@@@@@@@@@@@@@@@...+++++++++++++++++...",
"     ++++++++++@@   @@@@@@@@@@@@@@@@@+++@@@@@@@@@@@@@@@@@+++@@@@@@@@@@@@@@@@@+++@@@@@@@@@@@@@@@@@...+++++++++++++++++...",
"     ++++++++++@@   @@@@@@@@@@@@@@@@@+++@@@@@@@@@@@@@@@@@+++@@@@@@@@@@@@@@@@@+++@@@@@@@@@@@@@@@@@...+++++++++++++++++...",
"     ++++++++++@@   @@@@@@@@@@@@@@@@@+++@@@@@@@@@@@@@@@@@+++@@@@@@@@@@@@@@@@@+++@@@@@@@@@@@@@@@@@   +++++++++++++++++...",
"     ++++++++++@@   @@@@@@@@@@@@@@@@@+++@@@@@@@@@@@@@@@@@+++@@@@@@@@@@@@@@@@@+++@@@@@@@@@@@@@@@@@   +++++++++++++++++...",
"     ++++++++++@@   @@@@@@@@@@@@@@@@@+++@@@@@@@@@@@@@@@@@+++@@@@@@@@@@@@@@@@@+++@@@@@@@@@@@@@@@@@   +++++++++++++++++...",
"     ++++++++++@@   @@@@@@@@@@@@@@@@@+++@@@@@@@@@@@@@@@@@+++@@@@@@@@@@@@@@@@@+++@@@@@@@@@@@@@@@@@   +++++++++++++++++...",
"     ++++++++++@@   @@@@@@@@@@@@@@@@@+++@@@@@@@@@@@@@@@@@+++@@@@@@@@@@@@@@@@@+++@@@@@@@@@@@@@@@@@   +++++++++++++++++...",
".....          ++...+++++++++++++++++   +++++++++++++++++   +++++++++++++++++   +++++++++++++++++...                 ...",
".....          ++...+++++++++++++++++   +++++++++++++++++   +++++++++++++++++   +++++++++++++++++...                 ...",
".....          ++...+++++++++++++++++   +++++++++++++++++   +++++++++++++++++   +++++++++++++++++...                 ...",
".....          ++...+++++++++++++++++   +++++++++++++++++   +++++++++++++++++   +++++++++++++++++...                 ...",
".....          ++...+++++++++++++++++   +++++++++++++++++   +++++++++++++++++   +++++++++++++++++...                 ...",
".....          ++...+++++++++++++++++   +++++++++++++++++   +++++++++++++++++   +++++++++++++++++...                 ...",
".....          ++...+++++++++++++++++   +++++++++++++++++   +++++++++++++++++   +++++++++++++++++...                 ...",
"......................                                                                         .........................",
"......................                                                                         .........................",
"......................                                                                         .........................",
"........................................++++++++++++                            ++++++++++++++++++++++++++++++++++++++++",
"........................................++++++++++++                            ++++++++++++++++++++++++++++++++++++++++"};
