/* XPM */
static char * Door_xpm[] = {
"120 120 22 1",
" 	c #141412",
".	c #607897",
"+	c #7998BF",
"@	c #394554",
"#	c #2B3037",
"$	c #191C1E",
"%	c #281818",
"&	c #332520",
"*	c #3D3122",
"=	c #523D2A",
"-	c #343C45",
";	c #56687E",
">	c #483524",
",	c #0B0603",
"'	c #4F3B28",
")	c #0F0904",
"!	c #110805",
"~	c #1A1109",
"{	c #423020",
"]	c #160E07",
"^	c #4E3A28",
"/	c #181008",
"                                         ....++++++++++++++++++++++++++++++....                                         ",
"                                         ....++++++++++++++++++++++++++++++....                                         ",
"                                         ....++++++++++++++++++++++++++++++....                                         ",
"                                         ....++++++++++++++++++++++++++++++....                                         ",
"                                  ++++++++++++++++++++++++++++++++++++++++++++++++++++                                  ",
"                                  ++++++++++++++++++++++++++++++++++++++++++++++++++++                                  ",
"                                  ++++++++++++++++++++++++++++++++++++++++++++++++++++                                  ",
"                                  ++++++++++++++++++++++++++++++++++++++++++++++++++++                                  ",
"                          +++++++++++++++....@@@@######################@@@@....+++++++++++++++                          ",
"                          +++++++++++++++....@@@@######################@@@@....+++++++++++++++                          ",
"                          +++++++++++++++....@@@@######################@@@@....+++++++++++++++                          ",
"                          +++++++++++++++....@@@@######################@@@@....+++++++++++++++                          ",
"                      ++++++++++++...@@@@######################################@@@....+++++++++++                       ",
"                      ++++++++++++...@@@@######################################@@@....+++++++++++                       ",
"                      ++++++++++++...@@@@######################################@@@....+++++++++++                       ",
"$$$$$$$$$$$$$$$$$$$...++++++++@@@@##################$$$$$$$$$$$$$$$###################@@@@+++++++....$$$$$$$$$$$$$$$    ",
"$$$$$$$$$$$$$$$$$$$...++++++++@@@@##################$$$$$$$$$$$$$$$###################@@@@+++++++....$$$$$$$$$$$$$$$    ",
"$$$$$$$$$$$$$$$$$$$...++++++++@@@@##################$$$$$$$$$$$$$$$###################@@@@+++++++....$$$$$$$$$$$$$$$    ",
"$$$$$$$$$$$$$$$$$$$...++++++++@@@@##################$$$$$$$$$$$$$$$###################@@@@+++++++....$$$$$$$$$$$$$$$    ",
"$$$$$$$$$$$$$$$...........@@@@###########$$$$                              $$$$###########@@@@...........$$$$$$$$$$$    ",
"$$$$$$$$$$$$$$$...........@@@@###########$$$$                              $$$$###########@@@@...........$$$$$$$$$$$    ",
"$$$$$$$$$$$$$$$...........@@@@###########$$$$                              $$$$###########@@@@...........$$$$$$$$$$$    ",
"$$$$$$$$$$$$$$$...........@@@@###########$$$$                              $$$$###########@@@@...........$$$$$$$$$$$    ",
"$$$$$$$$$$$...........@@@@########$$$                                             $$$$########@@@............$$$$$$$    ",
"$$$$$$$$$$$...........@@@@########$$$                                             $$$$########@@@............$$$$$$$    ",
"$$$$$$$$$$$...........@@@@########$$$                                             $$$$########@@@............$$$$$$$    ",
"$$$$$$$$$$$...........@@@@########$$$                                             $$$$########@@@............$$$$$$$    ",
"$$$$$$$@@@@........@@@########$$$$           %%%%%%%%%%%        %%%%%%%%%%%           $$$$#######@@@@........@@@$$$$    ",
"$$$$$$$@@@@........@@@########$$$$           %%%%%%%%%%%        %%%%%%%%%%%           $$$$#######@@@@........@@@$$$$    ",
"$$$$$$$@@@@........@@@########$$$$           %%%%%%%%%%%        %%%%%%%%%%%           $$$$#######@@@@........@@@$$$$    ",
"       ............#######           %%%%%%%%%%%%&&&&&&&%%%%%%%%&&&&&&&%%%%%%%%%%%            #######...........        ",
"       ............#######           %%%%%%%%%%%%&&&&&&&%%%%%%%%&&&&&&&%%%%%%%%%%%            #######...........        ",
"       ............#######           %%%%%%%%%%%%&&&&&&&%%%%%%%%&&&&&&&%%%%%%%%%%%            #######...........        ",
"       ............#######           %%%%%%%%%%%%&&&&&&&%%%%%%%%&&&&&&&%%%%%%%%%%%            #######...........        ",
"...............#######$$$$        %%%&&&&&&&&%%%%&&&&&&&%%%%%%%%&&&&&&&%%%%&&&&&&&%%%%        $$$########...............",
"...............#######$$$$        %%%&&&&&&&&%%%%&&&&&&&%%%%%%%%&&&&&&&%%%%&&&&&&&%%%%        $$$########...............",
"...............#######$$$$        %%%&&&&&&&&%%%%&&&&&&&%%%%%%%%&&&&&&&%%%%&&&&&&&%%%%        $$$########...............",
"...............#######$$$$        %%%&&&&&&&&%%%%&&&&&&&%%%%%%%%&&&&&&&%%%%&&&&&&&%%%%        $$$########...............",
"...............####$$$        %%%%&&&&&&&&&&&%%%%&&&&&&&%%%%%%%%&&&&&&&%%%%&&&&&&&&&&&%%%%       $$$$####...............",
"...............####$$$        %%%%&&&&&&&&&&&%%%%&&&&&&&%%%%%%%%&&&&&&&%%%%&&&&&&&&&&&%%%%       $$$$####...............",
"...............####$$$        %%%%&&&&&&&&&&&%%%%&&&&&&&%%%%%%%%&&&&&&&%%%%&&&&&&&&&&&%%%%       $$$$####...............",
"...............####$$$        %%%%&&&&&&&&&&&%%%%&&&&&&&%%%%%%%%&&&&&&&%%%%&&&&&&&&&&&%%%%       $$$$####...............",
"@@@@@@@@@@@@@@@####       %%%%%%%%&&&&&&&&&&&%%%%*******%%%%%%%%*******%%%%&&&&&&&&&&&%%%%%%%%       ####@@@@@@@@@@@@@@@",
"@@@@@@@@@@@@@@@####       %%%%%%%%&&&&&&&&&&&%%%%*******%%%%%%%%*******%%%%&&&&&&&&&&&%%%%%%%%       ####@@@@@@@@@@@@@@@",
"@@@@@@@@@@@@@@@####       %%%%%%%%&&&&&&&&&&&%%%%*******%%%%%%%%*******%%%%&&&&&&&&&&&%%%%%%%%       ####@@@@@@@@@@@@@@@",
"@@@@@@@@@@@@@@@$$$$   %%%%%%%%%%%%***********%%%%*******&&&&&&&&*******%%%%***********%%%%%%%%%%%    $$$$@@@@@@@@@@@@@@@",
"@@@@@@@@@@@@@@@$$$$   %%%%%%%%%%%%***********%%%%*******&&&&&&&&*******%%%%***********%%%%%%%%%%%    $$$$@@@@@@@@@@@@@@@",
"@@@@@@@@@@@@@@@$$$$   %%%%%%%%%%%%***********%%%%*******&&&&&&&&*******%%%%***********%%%%%%%%%%%    $$$$@@@@@@@@@@@@@@@",
"@@@@@@@@@@@@@@@$$$$   %%%%%%%%%%%%***********%%%%*******&&&&&&&&*******%%%%***********%%%%%%%%%%%    $$$$@@@@@@@@@@@@@@@",
"###############       &&&&&&&&%%%%&&&&&&&&&&&%%%%=======&&&&&&&&=======%%%%&&&&&&&&&&&%%%%&&&&&&&        ###############",
"###############       &&&&&&&&%%%%&&&&&&&&&&&%%%%=======&&&&&&&&=======%%%%&&&&&&&&&&&%%%%&&&&&&&        ###############",
"###############       &&&&&&&&%%%%&&&&&&&&&&&%%%%=======&&&&&&&&=======%%%%&&&&&&&&&&&%%%%&&&&&&&        ###############",
"###############       &&&&&&&&%%%%&&&&&&&&&&&%%%%=======&&&&&&&&=======%%%%&&&&&&&&&&&%%%%&&&&&&&        ###############",
"                   %%%&&&&&&&&%%%%***********%%%%=======&&&&&&&&=======%%%%***********%%%%&&&&&&&%%%%                   ",
"                   %%%&&&&&&&&%%%%***********%%%%=======&&&&&&&&=======%%%%***********%%%%&&&&&&&%%%%                   ",
"                   %%%&&&&&&&&%%%%***********%%%%=======&&&&&&&&=======%%%%***********%%%%&&&&&&&%%%%                   ",
"                   %%%&&&&&&&&%%%%***********%%%%=======&&&&&&&&=======%%%%***********%%%%&&&&&&&%%%%                   ",
"-------$$$$$$$$    &&&&&&&&&&&%%%%***********%%%%=======&&&&&&&&=======%%%%***********%%%%&&&&&&&&&&&    $$$$$$$--------",
"-------$$$$$$$$    &&&&&&&&&&&%%%%***********%%%%=======&&&&&&&&=======%%%%***********%%%%&&&&&&&&&&&    $$$$$$$--------",
"-------$$$$$$$$    &&&&&&&&&&&%%%%***********%%%%=======&&&&&&&&=======%%%%***********%%%%&&&&&&&&&&&    $$$$$$$--------",
"-------$$$$$$$$    &&&&&&&&&&&%%%%===========&&&&=======&&&&&&&&=======&&&&===========%%%%&&&&&&&&&&&    $$$$$$$--------",
"-------$$$$$$$$    &&&&&&&&&&&%%%%===========&&&&=======&&&&&&&&=======&&&&===========%%%%&&&&&&&&&&&    $$$$$$$--------",
"-------$$$$$$$$    &&&&&&&&&&&%%%%===========&&&&=======&&&&&&&&=======&&&&===========%%%%&&&&&&&&&&&    $$$$$$$--------",
"-------$$$$$$$$    &&&&&&&&&&&%%%%===========&&&&=======&&&&&&&&=======&&&&===========%%%%&&&&&&&&&&&    $$$$$$$--------",
"@@@@@@@$$$$$$$$%%%%***********%%%%===========&&&&=======&&&&&&&&=======&&&&===========%%%%***********%%%%$$$$$$$@@@@@@@@",
"@@@@@@@$$$$$$$$%%%%***********%%%%===========&&&&=======&&&&&&&&=======&&&&===========%%%%***********%%%%$$$$$$$@@@@@@@@",
"@@@@@@@$$$$$$$$%%%%***********%%%%===========&&&&=======&&&&&&&&=======&&&&===========%%%%***********%%%%$$$$$$$@@@@@@@@",
"@@@@@@@$$$$$$$$%%%%***********%%%%===========&&&&=======&&&&&&&&=======&&&&===========%%%%***********%%%%$$$$$$$@@@@@@@@",
";;;;;;;$$$$$$$$%%%%***********%%%%===========&&&&=======&&&&&&&&=======&&&&===========%%%%&&&&&&&&&&&%%%%$$$$$$$;;;;;;;;",
";;;;;;;$$$$$$$$%%%%***********%%%%===========&&&&=======&&&&&&&&=======&&&&===========%%%%&&&&&&&&&&&%%%%$$$$$$$;;;;;;;;",
";;;;;;;$$$$$$$$%%%%***********%%%%===========&&&&=======&&&&&&&&=======&&&&===========%%%%&&&&&&&&&&&%%%%$$$$$$$;;;;;;;;",
";;;;;;;$$$$$$$$%%%%***********%%%%===========&&&&=======&&&&&&&&=======&&&&===========%%%%&&&&&&&&&&&%%%%$$$$$$$;;;;;;;;",
";;;;;;;$$$$$$$$%%%%===========%%%%===========&&&&=======&&&&&&&&=======&&&&===========%%%%===========%%%%$$$$$$$;;;;;;;;",
";;;;;;;$$$$$$$$%%%%===========%%%%===========&&&&=======&&&&&&&&=======&&&&===========%%%%===========%%%%$$$$$$$;;;;;;;;",
";;;;;;;$$$$$$$$%%%%===========%%%%===========&&&&=======&&&&&&&&=======&&&&===========%%%%===========%%%%$$$$$$$;;;;;;;;",
";;;;;;;$$$$$$$$%%%%===========&&&&===========&&&&=======&&&&&&&&=======&&&&>>>>,,,''''&&&&===========%%%%$$$$$$$;;;;;;;;",
";;;;;;;$$$$$$$$%%%%===========&&&&===========&&&&=======&&&&&&&&=======&&&&>>>>,,,''''&&&&===========%%%%$$$$$$$;;;;;;;;",
";;;;;;;$$$$$$$$%%%%===========&&&&===========&&&&=======&&&&&&&&=======&&&&>>>>,,,''''&&&&===========%%%%$$$$$$$;;;;;;;;",
";;;;;;;$$$$$$$$%%%%===========&&&&===========&&&&=======&&&&&&&&=======&&&&>>>>,,,''''&&&&===========%%%%$$$$$$$;;;;;;;;",
";;;;;;;$$$$$$$$%%%%===========&&&&===========&&&&=======&&&&&&&&=======&&&&))))!!!~~~~&&&&===========%%%%$$$$$$$;;;;;;;;",
";;;;;;;$$$$$$$$%%%%===========&&&&===========&&&&=======&&&&&&&&=======&&&&))))!!!~~~~&&&&===========%%%%$$$$$$$;;;;;;;;",
";;;;;;;$$$$$$$$%%%%===========&&&&===========&&&&=======&&&&&&&&=======&&&&))))!!!~~~~&&&&===========%%%%$$$$$$$;;;;;;;;",
";;;;;;;$$$$$$$$%%%%===========&&&&===========&&&&=======&&&&&&&&=======&&&&))))!!!~~~~&&&&===========%%%%$$$$$$$;;;;;;;;",
";;;;;;;$$$$$$$$%%%%===========&&&&===========&&&&=======&&&&&&&&=======&&&&{{{{]]]^^^^&&&&===========%%%%$$$$$$$;;;;;;;;",
";;;;;;;$$$$$$$$%%%%===========&&&&===========&&&&=======&&&&&&&&=======&&&&{{{{]]]^^^^&&&&===========%%%%$$$$$$$;;;;;;;;",
";;;;;;;$$$$$$$$%%%%===========&&&&===========&&&&=======&&&&&&&&=======&&&&{{{{]]]^^^^&&&&===========%%%%$$$$$$$;;;;;;;;",
";;;;;;;$$$$$$$$%%%%===========&&&&===========&&&&=======&&&&&&&&=======&&&&{{{{]]]^^^^&&&&===========%%%%$$$$$$$;;;;;;;;",
";;;;;;;$$$$$$$$%%%%===========&&&&===========&&&&=======&&&&&&&&=======&&&&{{{{///^^^^&&&&===========%%%%$$$$$$$;;;;;;;;",
";;;;;;;$$$$$$$$%%%%===========&&&&===========&&&&=======&&&&&&&&=======&&&&{{{{///^^^^&&&&===========%%%%$$$$$$$;;;;;;;;",
";;;;;;;$$$$$$$$%%%%===========&&&&===========&&&&=======&&&&&&&&=======&&&&{{{{///^^^^&&&&===========%%%%$$$$$$$;;;;;;;;",
";;;;;;;$$$$$$$$%%%%===========&&&&===========&&&&=======&&&&&&&&=======&&&&===========&&&&===========%%%%$$$$$$$;;;;;;;;",
";;;;;;;$$$$$$$$%%%%===========&&&&===========&&&&=======&&&&&&&&=======&&&&===========&&&&===========%%%%$$$$$$$;;;;;;;;",
";;;;;;;$$$$$$$$%%%%===========&&&&===========&&&&=======&&&&&&&&=======&&&&===========&&&&===========%%%%$$$$$$$;;;;;;;;",
";;;;;;;$$$$$$$$%%%%===========&&&&===========&&&&=======&&&&&&&&=======&&&&===========&&&&===========%%%%$$$$$$$;;;;;;;;",
"@@@@@@@$$$$$$$$%%%%===========&&&&===========&&&&=======&&&&&&&&=======&&&&===========&&&&===========%%%%$$$$$$$@@@@@@@@",
"@@@@@@@$$$$$$$$%%%%===========&&&&===========&&&&=======&&&&&&&&=======&&&&===========&&&&===========%%%%$$$$$$$@@@@@@@@",
"@@@@@@@$$$$$$$$%%%%===========&&&&===========&&&&=======&&&&&&&&=======&&&&===========&&&&===========%%%%$$$$$$$@@@@@@@@",
"@@@@@@@$$$$$$$$%%%%===========&&&&===========&&&&=======&&&&&&&&=======&&&&===========&&&&===========%%%%$$$$$$$@@@@@@@@",
";;;;;;;$$$$$$$$%%%%===========&&&&***********&&&&=======&&&&&&&&=======&&&&***********&&&&===========%%%%$$$$$$$;;;;;;;;",
";;;;;;;$$$$$$$$%%%%===========&&&&***********&&&&=======&&&&&&&&=======&&&&***********&&&&===========%%%%$$$$$$$;;;;;;;;",
";;;;;;;$$$$$$$$%%%%===========&&&&***********&&&&=======&&&&&&&&=======&&&&***********&&&&===========%%%%$$$$$$$;;;;;;;;",
";;;;;;;$$$$$$$$%%%%===========&&&&***********&&&&=======&&&&&&&&=======&&&&***********&&&&===========%%%%$$$$$$$;;;;;;;;",
"@@@@@@@$$$$$$$$%%%%===========&&&&===========&&&&=======&&&&&&&&=======&&&&===========&&&&===========%%%%$$$$$$$@@@@@@@@",
"@@@@@@@$$$$$$$$%%%%===========&&&&===========&&&&=======&&&&&&&&=======&&&&===========&&&&===========%%%%$$$$$$$@@@@@@@@",
"@@@@@@@$$$$$$$$%%%%===========&&&&===========&&&&=======&&&&&&&&=======&&&&===========&&&&===========%%%%$$$$$$$@@@@@@@@",
";;;;;;;$$$$$$$$%%%%***********&&&&***********&&&&*******&&&&&&&&*******&&&&***********&&&&***********%%%%$$$$$$$;;;;;;;;",
";;;;;;;$$$$$$$$%%%%***********&&&&***********&&&&*******&&&&&&&&*******&&&&***********&&&&***********%%%%$$$$$$$;;;;;;;;",
";;;;;;;$$$$$$$$%%%%***********&&&&***********&&&&*******&&&&&&&&*******&&&&***********&&&&***********%%%%$$$$$$$;;;;;;;;",
";;;;;;;$$$$$$$$%%%%***********&&&&***********&&&&*******&&&&&&&&*******&&&&***********&&&&***********%%%%$$$$$$$;;;;;;;;",
"@@@@@@@$$$$$$$$%%%%===========&&&&***********&&&&=======&&&&&&&&=======&&&&***********&&&&===========%%%%$$$$$$$@@@@@@@@",
"@@@@@@@$$$$$$$$%%%%===========&&&&***********&&&&=======&&&&&&&&=======&&&&***********&&&&===========%%%%$$$$$$$@@@@@@@@",
"@@@@@@@$$$$$$$$%%%%===========&&&&***********&&&&=======&&&&&&&&=======&&&&***********&&&&===========%%%%$$$$$$$@@@@@@@@",
"@@@@@@@$$$$$$$$%%%%===========&&&&***********&&&&=======&&&&&&&&=======&&&&***********&&&&===========%%%%$$$$$$$@@@@@@@@",
"@@@@@@@$$$$$$$$%%%%***********&&&&***********&&&&*******&&&&&&&&*******&&&&***********&&&&***********%%%%$$$$$$$@@@@@@@@",
"@@@@@@@$$$$$$$$%%%%***********&&&&***********&&&&*******&&&&&&&&*******&&&&***********&&&&***********%%%%$$$$$$$@@@@@@@@",
"@@@@@@@$$$$$$$$%%%%***********&&&&***********&&&&*******&&&&&&&&*******&&&&***********&&&&***********%%%%$$$$$$$@@@@@@@@",
"@@@@@@@$$$$$$$$%%%%***********&&&&***********&&&&*******&&&&&&&&*******&&&&***********&&&&***********%%%%$$$$$$$@@@@@@@@",
"@@@@@@@$$$$$$$$%%%%***********&&&&***********&&&&*******&&&&&&&&*******&&&&***********&&&&***********%%%%$$$$$$$@@@@@@@@",
"@@@@@@@$$$$$$$$%%%%***********&&&&***********&&&&*******&&&&&&&&*******&&&&***********&&&&***********%%%%$$$$$$$@@@@@@@@",
"@@@@@@@$$$$$$$$%%%%***********&&&&***********&&&&*******&&&&&&&&*******&&&&***********&&&&***********%%%%$$$$$$$@@@@@@@@"};
