/* XPM */
static char * Floor_xpm[] = {
"120 120 4 1",
" 	c #162527",
".	c #0F1A1B",
"+	c #1D2E30",
"@	c #243A3C",
"                 ...  +++  +++       ...       ...  ...  ...                 ...       ...  ...  ...                 ...",
"                 ...  +++  +++       ...       ...  ...  ...                 ...       ...  ...  ...                 ...",
"                 ...  +++  +++       ...       ...  ...  ...                 ...       ...  ...  ...                 ...",
"                 ...  +++  +++       ...       ...  ...  ...                 ...       ...  ...  ...                 ...",
"                 ...  +++  +++       ...       ...  ...  ...                 ...       ...  ...  ...                 ...",
"     ++++++++++++...+++++++++++++++++...+++++++++++++++++...+++++++++++++++++...+++++++++++++++++...                 ...",
"     ++++++++++++...+++++++++++++++++...+++++++++++++++++...+++++++++++++++++...+++++++++++++++++...                 ...",
"     ++++++++++++...+++++++++++++++++...+++++++++++++++++...+++++++++++++++++...+++++++++++++++++...                 ...",
"     ++++++++++++   +++++++++++++++++   +++++++++++++++++   +++++++++++++++++   +++++++++++++++++...                 ...",
"     ++++++++++++   +++++++++++++++++   +++++++++++++++++   +++++++++++++++++   +++++++++++++++++...                 ...",
"     ++++++++++++   +++++++++++++++++   +++++++++++++++++   +++++++++++++++++   +++++++++++++++++...                 ...",
"     ++++++++++++   +++++++++++++++++   +++++++++++++++++   +++++++++++++++++   +++++++++++++++++...                 ...",
"     ++++++++++++   +++++++++++++++++   +++++++++++++++++   +++++++++++++++++   +++++++++++++++++...                 ...",
"+++++++++++++++++   +++++++++++++++++   +++++++++++++++++   +++++++++++++++++   +++++++++++++++++...                 ...",
"+++++++++++++++++   +++++++++++++++++   +++++++++++++++++   +++++++++++++++++   +++++++++++++++++...                 ...",
"     ++++++++++++   @@@@@@@@@@@@@@@@@   +++++++++++++++++   @@@@@@@@@@@@@@@@@   +++++++++++++++++...+++++++++++++++++...",
"     ++++++++++++   @@@@@@@@@@@@@@@@@   +++++++++++++++++   @@@@@@@@@@@@@@@@@   +++++++++++++++++...+++++++++++++++++...",
"     ++++++++++++   @@@@@@@@@@@@@@@@@   +++++++++++++++++   @@@@@@@@@@@@@@@@@   +++++++++++++++++...+++++++++++++++++...",
".......                                                                                     ............................",
".......                                                                                     ............................",
"     ++++++++++@@   @@@@@@@@@@@@@@@@@   +++++++++++++++++   @@@@@@@@@@@@@@@@@+++@@@@@@@@@@@@@@@@@...+++++++++++++++++...",
"     ++++++++++@@   @@@@@@@@@@@@@@@@@   +++++++++++++++++   @@@@@@@@@@@@@@@@@+++@@@@@@@@@@@@@@@@@...+++++++++++++++++...",
"     ++++++++++@@   @@@@@@@@@@@@@@@@@   +++++++++++++++++   @@@@@@@@@@@@@@@@@+++@@@@@@@@@@@@@@@@@...+++++++++++++++++...",
"+++++++++++++++@@   @@@@@@@@@@@@@@@@@   @@@@@@@@@@@@@@@@@   @@@@@@@@@@@@@@@@@+++@@@@@@@@@@@@@@@@@...+++++++++++++++++...",
"+++++++++++++++@@   @@@@@@@@@@@@@@@@@   @@@@@@@@@@@@@@@@@   @@@@@@@@@@@@@@@@@+++@@@@@@@@@@@@@@@@@...+++++++++++++++++...",
"     ++++++++++@@   @@@@@@@@@@@@@@@@@+++@@@@@@@@@@@@@@@@@+++@@@@@@@@@@@@@@@@@+++@@@@@@@@@@@@@@@@@   +++++++++++++++++...",
"     ++++++++++@@   @@@@@@@@@@@@@@@@@+++@@@@@@@@@@@@@@@@@+++@@@@@@@@@@@@@@@@@+++@@@@@@@@@@@@@@@@@   +++++++++++++++++...",
"     ++++++++++@@   @@@@@@@@@@@@@@@@@+++@@@@@@@@@@@@@@@@@+++@@@@@@@@@@@@@@@@@+++@@@@@@@@@@@@@@@@@   +++++++++++++++++...",
"     ++++++++++@@   @@@@@@@@@@@@@@@@@+++@@@@@@@@@@@@@@@@@+++@@@@@@@@@@@@@@@@@+++@@@@@@@@@@@@@@@@@   +++++++++++++++++...",
"     ++++++++++@@   @@@@@@@@@@@@@@@@@+++@@@@@@@@@@@@@@@@@+++@@@@@@@@@@@@@@@@@+++@@@@@@@@@@@@@@@@@   +++++++++++++++++...",
"     ++++++++++@@   @@@@@@@@@@@@@@@@@+++@@@@@@@@@@@@@@@@@+++@@@@@@@@@@@@@@@@@+++@@@@@@@@@@@@@@@@@   +++++++++++++++++...",
"     ++++++++++@@   @@@@@@@@@@@@@@@@@+++@@@@@@@@@@@@@@@@@+++@@@@@@@@@@@@@@@@@+++@@@@@@@@@@@@@@@@@   +++++++++++++++++...",
"     ++++++++++@@   @@@@@@@@@@@@@@@@@+++@@@@@@@@@@@@@@@@@+++@@@@@@@@@@@@@@@@@+++@@@@@@@@@@@@@@@@@   +++++++++++++++++...",
"     ++++++++++@@   @@@@@@@@@@@@@@@@@+++@@@@@@@@@@@@@@@@@+++@@@@@@@@@@@@@@@@@+++@@@@@@@@@@@@@@@@@   +++++++++++++++++...",
"     ++++++++++@@   @@@@@@@@@@@@@@@@@+++@@@@@@@@@@@@@@@@@+++@@@@@@@@@@@@@@@@@+++@@@@@@@@@@@@@@@@@   +++++++++++++++++...",
"     ++++++++++@@   @@@@@@@@@@@@@@@@@+++@@@@@@@@@@@@@@@@@+++@@@@@@@@@@@@@@@@@+++@@@@@@@@@@@@@@@@@   +++++++++++++++++...",
"     ++++++++++@@   @@@@@@@@@@@@@@@@@+++@@@@@@@@@@@@@@@@@+++@@@@@@@@@@@@@@@@@+++@@@@@@@@@@@@@@@@@   +++++++++++++++++...",
"     ++++++++++@@   @@@@@@@@@@@@@@@@@+++@@@@@@@@@@@@@@@@@+++@@@@@@@@@@@@@@@@@+++@@@@@@@@@@@@@@@@@   +++++++++++++++++...",
".......             +++++++++++++++++++++++++++++++++++++++++++++++++++++++++++++++++++++++++++++               ........",
".......             +++++++++++++++++++++++++++++++++++++++++++++++++++++++++++++++++++++++++++++               ........",
".....++++++++++++   @@@@@@@@@@@@@@@@@+++@@@@@@@@@@@@@@@@@+++@@@@@@@@@@@@@@@@@+++@@@@@@@@@@@@@@@@@   @@+++++++++++++++...",
".....++++++++++++   @@@@@@@@@@@@@@@@@+++@@@@@@@@@@@@@@@@@+++@@@@@@@@@@@@@@@@@+++@@@@@@@@@@@@@@@@@   @@+++++++++++++++...",
".....++++++++++++   @@@@@@@@@@@@@@@@@+++@@@@@@@@@@@@@@@@@+++@@@@@@@@@@@@@@@@@+++@@@@@@@@@@@@@@@@@   @@+++++++++++++++...",
".....++++++++++++   @@@@@@@@@@@@@@@@@+++@@@@@@@@@@@@@@@@@+++@@@@@@@@@@@@@@@@@+++@@@@@@@@@@@@@@@@@   @@+++++++++++++++...",
".....++++++++++++   @@@@@@@@@@@@@@@@@+++@@@@@@@@@@@@@@@@@+++@@@@@@@@@@@@@@@@@+++@@@@@@@@@@@@@@@@@   @@+++++++++++++++...",
"     ++++++++++++   @@@@@@@@@@@@@@@@@+++@@@@@@@@@@@@@@@@@+++@@@@@@@@@@@@@@@@@+++@@@@@@@@@@@@@@@@@   @@+++++++++++++++...",
"     ++++++++++++   @@@@@@@@@@@@@@@@@+++@@@@@@@@@@@@@@@@@+++@@@@@@@@@@@@@@@@@+++@@@@@@@@@@@@@@@@@   @@+++++++++++++++...",
"     ++++++++++++   @@@@@@@@@@@@@@@@@+++@@@@@@@@@@@@@@@@@+++@@@@@@@@@@@@@@@@@+++@@@@@@@@@@@@@@@@@   @@+++++++++++++++...",
".....++++++++++++   @@@@@@@@@@@@@@@@@+++@@@@@@@@@@@@@@@@@+++@@@@@@@@@@@@@@@@@+++@@@@@@@@@@@@@@@@@   @@+++++++++++++++...",
".....++++++++++++   @@@@@@@@@@@@@@@@@+++@@@@@@@@@@@@@@@@@+++@@@@@@@@@@@@@@@@@+++@@@@@@@@@@@@@@@@@   @@+++++++++++++++...",
"     ++++++++++++   @@@@@@@@@@@@@@@@@+++@@@@@@@@@@@@@@@@@+++@@@@@@@@@@@@@@@@@+++@@@@@@@@@@@@@@@@@   @@+++++++++++++++...",
"     ++++++++++++   @@@@@@@@@@@@@@@@@+++@@@@@@@@@@@@@@@@@+++@@@@@@@@@@@@@@@@@+++@@@@@@@@@@@@@@@@@   @@+++++++++++++++...",
"     ++++++++++++   @@@@@@@@@@@@@@@@@+++@@@@@@@@@@@@@@@@@+++@@@@@@@@@@@@@@@@@+++@@@@@@@@@@@@@@@@@   @@+++++++++++++++...",
"     ++++++++++++   @@@@@@@@@@@@@@@@@+++@@@@@@@@@@@@@@@@@+++@@@@@@@@@@@@@@@@@+++@@@@@@@@@@@@@@@@@...@@+++++++++++++++...",
"     ++++++++++++   @@@@@@@@@@@@@@@@@+++@@@@@@@@@@@@@@@@@+++@@@@@@@@@@@@@@@@@+++@@@@@@@@@@@@@@@@@...@@+++++++++++++++...",
"     ++++++++++++   @@@@@@@@@@@@@@@@@+++@@@@@@@@@@@@@@@@@+++@@@@@@@@@@@@@@@@@+++@@@@@@@@@@@@@@@@@...@@+++++++++++++++...",
"     ++++++++++++   @@@@@@@@@@@@@@@@@+++@@@@@@@@@@@@@@@@@+++@@@@@@@@@@@@@@@@@+++@@@@@@@@@@@@@@@@@...@@+++++++++++++++...",
"     ++++++++++++   @@@@@@@@@@@@@@@@@+++@@@@@@@@@@@@@@@@@+++@@@@@@@@@@@@@@@@@+++@@@@@@@@@@@@@@@@@...@@+++++++++++++++...",
".......               +++++++++++++++++++++++++++++++++++++++++++++++++++++++++++++++++++++++++  ...            ........",
".......               +++++++++++++++++++++++++++++++++++++++++++++++++++++++++++++++++++++++++  ...            ........",
"     ++++++++++@@   @@@@@@@@@@@@@@@@@+++@@@@@@@@@@@@@@@@@+++@@@@@@@@@@@@@@@@@+++@@@@@@@@@@@@@@@@@...+++++++++++++++++...",
"     ++++++++++@@   @@@@@@@@@@@@@@@@@+++@@@@@@@@@@@@@@@@@+++@@@@@@@@@@@@@@@@@+++@@@@@@@@@@@@@@@@@...+++++++++++++++++...",
"     ++++++++++@@   @@@@@@@@@@@@@@@@@+++@@@@@@@@@@@@@@@@@+++@@@@@@@@@@@@@@@@@+++@@@@@@@@@@@@@@@@@...+++++++++++++++++...",
"     ++++++++++@@   @@@@@@@@@@@@@@@@@+++@@@@@@@@@@@@@@@@@+++@@@@@@@@@@@@@@@@@+++@@@@@@@@@@@@@@@@@   +++++++++++++++++...",
"     ++++++++++@@   @@@@@@@@@@@@@@@@@+++@@@@@@@@@@@@@@@@@+++@@@@@@@@@@@@@@@@@+++@@@@@@@@@@@@@@@@@   +++++++++++++++++...",
"     ++++++++++@@   @@@@@@@@@@@@@@@@@+++@@@@@@@@@@@@@@@@@+++@@@@@@@@@@@@@@@@@+++@@@@@@@@@@@@@@@@@   +++++++++++++++++...",
"     ++++++++++@@   @@@@@@@@@@@@@@@@@+++@@@@@@@@@@@@@@@@@+++@@@@@@@@@@@@@@@@@+++@@@@@@@@@@@@@@@@@   +++++++++++++++++...",
"     ++++++++++@@   @@@@@@@@@@@@@@@@@+++@@@@@@@@@@@@@@@@@+++@@@@@@@@@@@@@@@@@+++@@@@@@@@@@@@@@@@@   +++++++++++++++++...",
"     ++++++++++@@   @@@@@@@@@@@@@@@@@+++@@@@@@@@@@@@@@@@@+++@@@@@@@@@@@@@@@@@+++@@@@@@@@@@@@@@@@@   +++++++++++++++++...",
"     ++++++++++@@   @@@@@@@@@@@@@@@@@+++@@@@@@@@@@@@@@@@@+++@@@@@@@@@@@@@@@@@+++@@@@@@@@@@@@@@@@@   +++++++++++++++++...",
"     ++++++++++@@   @@@@@@@@@@@@@@@@@+++@@@@@@@@@@@@@@@@@+++@@@@@@@@@@@@@@@@@+++@@@@@@@@@@@@@@@@@   +++++++++++++++++...",
"     ++++++++++@@   @@@@@@@@@@@@@@@@@+++@@@@@@@@@@@@@@@@@+++@@@@@@@@@@@@@@@@@+++@@@@@@@@@@@@@@@@@   +++++++++++++++++...",
"     ++++++++++@@   @@@@@@@@@@@@@@@@@+++@@@@@@@@@@@@@@@@@+++@@@@@@@@@@@@@@@@@+++@@@@@@@@@@@@@@@@@   +++++++++++++++++...",
"     ++++++++++@@   @@@@@@@@@@@@@@@@@+++@@@@@@@@@@@@@@@@@+++@@@@@@@@@@@@@@@@@+++@@@@@@@@@@@@@@@@@   +++++++++++++++++...",
"     ++++++++++@@   @@@@@@@@@@@@@@@@@+++@@@@@@@@@@@@@@@@@+++@@@@@@@@@@@@@@@@@+++@@@@@@@@@@@@@@@@@   +++++++++++++++++...",
"     ++++++++++@@   @@@@@@@@@@@@@@@@@+++@@@@@@@@@@@@@@@@@+++@@@@@@@@@@@@@@@@@+++@@@@@@@@@@@@@@@@@   +++++++++++++++++...",
"     ++++++++++@@   @@@@@@@@@@@@@@@@@+++@@@@@@@@@@@@@@@@@+++@@@@@@@@@@@@@@@@@+++@@@@@@@@@@@@@@@@@   +++++++++++++++++...",
"     ++++++++++@@   @@@@@@@@@@@@@@@@@+++@@@@@@@@@@@@@@@@@+++@@@@@@@@@@@@@@@@@+++@@@@@@@@@@@@@@@@@   +++++++++++++++++...",
".......             +++++++++++++++++++++++++++++++++++++++++++++++++++++++++++++++++++++++++++++               ........",
".......             +++++++++++++++++++++++++++++++++++++++++++++++++++++++++++++++++++++++++++++               ........",
".....++++++++++++   @@@@@@@@@@@@@@@@@+++@@@@@@@@@@@@@@@@@+++@@@@@@@@@@@@@@@@@+++@@@@@@@@@@@@@@@@@   @@+++++++++++++++...",
".....++++++++++++   @@@@@@@@@@@@@@@@@+++@@@@@@@@@@@@@@@@@+++@@@@@@@@@@@@@@@@@+++@@@@@@@@@@@@@@@@@   @@+++++++++++++++...",
".....++++++++++++   @@@@@@@@@@@@@@@@@+++@@@@@@@@@@@@@@@@@+++@@@@@@@@@@@@@@@@@+++@@@@@@@@@@@@@@@@@   @@+++++++++++++++...",
".....++++++++++++   @@@@@@@@@@@@@@@@@+++@@@@@@@@@@@@@@@@@+++@@@@@@@@@@@@@@@@@+++@@@@@@@@@@@@@@@@@   @@+++++++++++++++...",
".....++++++++++++   @@@@@@@@@@@@@@@@@+++@@@@@@@@@@@@@@@@@+++@@@@@@@@@@@@@@@@@+++@@@@@@@@@@@@@@@@@   @@+++++++++++++++...",
"     ++++++++++++   @@@@@@@@@@@@@@@@@+++@@@@@@@@@@@@@@@@@+++@@@@@@@@@@@@@@@@@+++@@@@@@@@@@@@@@@@@   @@+++++++++++++++...",
"     ++++++++++++   @@@@@@@@@@@@@@@@@+++@@@@@@@@@@@@@@@@@+++@@@@@@@@@@@@@@@@@+++@@@@@@@@@@@@@@@@@   @@+++++++++++++++...",
"     ++++++++++++   @@@@@@@@@@@@@@@@@+++@@@@@@@@@@@@@@@@@+++@@@@@@@@@@@@@@@@@+++@@@@@@@@@@@@@@@@@   @@+++++++++++++++...",
".....++++++++++++   @@@@@@@@@@@@@@@@@+++@@@@@@@@@@@@@@@@@+++@@@@@@@@@@@@@@@@@+++@@@@@@@@@@@@@@@@@   @@+++++++++++++++...",
".....++++++++++++   @@@@@@@@@@@@@@@@@+++@@@@@@@@@@@@@@@@@+++@@@@@@@@@@@@@@@@@+++@@@@@@@@@@@@@@@@@   @@+++++++++++++++...",
"     ++++++++++++   @@@@@@@@@@@@@@@@@+++@@@@@@@@@@@@@@@@@+++@@@@@@@@@@@@@@@@@+++@@@@@@@@@@@@@@@@@   @@+++++++++++++++...",
"     ++++++++++++   @@@@@@@@@@@@@@@@@+++@@@@@@@@@@@@@@@@@+++@@@@@@@@@@@@@@@@@+++@@@@@@@@@@@@@@@@@   @@+++++++++++++++...",
"     ++++++++++++   @@@@@@@@@@@@@@@@@+++@@@@@@@@@@@@@@@@@+++@@@@@@@@@@@@@@@@@+++@@@@@@@@@@@@@@@@@   @@+++++++++++++++...",
"     ++++++++++++   @@@@@@@@@@@@@@@@@+++@@@@@@@@@@@@@@@@@+++@@@@@@@@@@@@@@@@@+++@@@@@@@@@@@@@@@@@...@@+++++++++++++++...",
"     ++++++++++++   @@@@@@@@@@@@@@@@@+++@@@@@@@@@@@@@@@@@+++@@@@@@@@@@@@@@@@@+++@@@@@@@@@@@@@@@@@...@@+++++++++++++++...",
"     ++++++++++++   @@@@@@@@@@@@@@@@@+++@@@@@@@@@@@@@@@@@+++@@@@@@@@@@@@@@@@@+++@@@@@@@@@@@@@@@@@...@@+++++++++++++++...",
"     ++++++++++++   @@@@@@@@@@@@@@@@@+++@@@@@@@@@@@@@@@@@+++@@@@@@@@@@@@@@@@@+++@@@@@@@@@@@@@@@@@...@@+++++++++++++++...",
"     ++++++++++++   @@@@@@@@@@@@@@@@@+++@@@@@@@@@@@@@@@@@+++@@@@@@@@@@@@@@@@@+++@@@@@@@@@@@@@@@@@...@@+++++++++++++++...",
".......               +++++++++++++++++++++++++++++++++++++++++++++++++++++++++++++++++++++++++  ...            ........",
".......               +++++++++++++++++++++++++++++++++++++++++++++++++++++++++++++++++++++++++  ...            ........",
"     ++++++++++@@   @@@@@@@@@@@@@@@@@+++@@@@@@@@@@@@@@@@@+++@@@@@@@@@@@@@@@@@+++@@@@@@@@@@@@@@@@@...+++++++++++++++++...",
"     ++++++++++@@   @@@@@@@@@@@@@@@@@+++@@@@@@@@@@@@@@@@@+++@@@@@@@@@@@@@@@@@+++@@@@@@@@@@@@@@@@@...+++++++++++++++++...",
"     ++++++++++@@   @@@@@@@@@@@@@@@@@+++@@@@@@@@@@@@@@@@@+++@@@@@@@@@@@@@@@@@+++@@@@@@@@@@@@@@@@@...+++++++++++++++++...",
"     ++++++++++@@   @@@@@@@@@@@@@@@@@+++@@@@@@@@@@@@@@@@@+++@@@@@@@@@@@@@@@@@+++@@@@@@@@@@@@@@@@@   +++++++++++++++++...",
"     ++++++++++@@   @@@@@@@@@@@@@@@@@+++@@@@@@@@@@@@@@@@@+++@@@@@@@@@@@@@@@@@+++@@@@@@@@@@@@@@@@@   +++++++++++++++++...",
"     ++++++++++@@   @@@@@@@@@@@@@@@@@+++@@@@@@@@@@@@@@@@@+++@@@@@@@@@@@@@@@@@+++@@@@@@@@@@@@@@@@@   +++++++++++++++++...",
"     ++++++++++@@   @@@@@@@@@@@@@@@@@+++@@@@@@@@@@@@@@@@@+++@@@@@@@@@@@@@@@@@+++@@@@@@@@@@@@@@@@@   +++++++++++++++++...",
"     ++++++++++@@   @@@@@@@@@@@@@@@@@+++@@@@@@@@@@@@@@@@@+++@@@@@@@@@@@@@@@@@+++@@@@@@@@@@@@@@@@@   +++++++++++++++++...",
".....          ++...+++++++++++++++++   +++++++++++++++++   +++++++++++++++++   +++++++++++++++++...                 ...",
".....          ++...+++++++++++++++++   +++++++++++++++++   +++++++++++++++++   +++++++++++++++++...                 ...",
".....          ++...+++++++++++++++++   +++++++++++++++++   +++++++++++++++++   +++++++++++++++++...                 ...",
".....          ++...+++++++++++++++++   +++++++++++++++++   +++++++++++++++++   +++++++++++++++++...                 ...",
".....          ++...+++++++++++++++++   +++++++++++++++++   +++++++++++++++++   +++++++++++++++++...                 ...",
".....          ++...+++++++++++++++++   +++++++++++++++++   +++++++++++++++++   +++++++++++++++++...                 ...",
".....          ++...+++++++++++++++++   +++++++++++++++++   +++++++++++++++++   +++++++++++++++++...                 ...",
"......................                                                                         .........................",
"......................                                                                         .........................",
"......................                                                                         .........................",
"........................................++++++++++++                            ++++++++++++++++++++++++++++++++++++++++",
"........................................++++++++++++                            ++++++++++++++++++++++++++++++++++++++++"};
