/* XPM */
static char * Key_xpm[] = {
"120 120 8 1",
" 	c #162527",
".	c #0F1A1B",
"+	c #1D2E30",
"@	c #243A3C",
"#	c #623E19",
"$	c #FFD967",
"%	c #211511",
"&	c #8A6D37",
"                 ...  +++  +++       ...       ...  ...  ...                 ...       ...  ...  ...                 ...",
"                 ...  +++  +++       ...       ...  ...  ...                 ...       ...  ...  ...                 ...",
"                 ...  +++  +++       ...       ...  ...  ...                 ...       ...  ...  ...                 ...",
"                 ...  +++  +++       ...       ...  ...  ...                 ...       ...  ...  ...                 ...",
"                 ...  +++  +++       ...       ...  ...  ...                 ...       ...  ...  ...                 ...",
"     ++++++++++++...+++++++++++++++++...+++++++++++++++++...+++++++++++++++++...+++++++++++++++++...                 ...",
"     ++++++++++++...+++++++++++++++++...+++++++++++++++++...+++++++++++++++++...+++++++++++++++++...                 ...",
"     ++++++++++++...+++++++++++++++++...+++++++++++++++++...+++++++++++++++++...+++++++++++++++++...                 ...",
"     ++++++++++++   +++++++++++++++++   +++++++++++++++++   +++++++++++++++++   +++++++++++++++++...                 ...",
"     ++++++++++++   +++++++++++++++++   +++++++++++++++++   +++++++++++++++++   +++++++++++++++++...                 ...",
"     ++++++++++++   +++++++++++++++++   +++++++++++++++++   +++++++++++++++++   +++++++++++++++++...                 ...",
"     ++++++++++++   +++++++++++++++++   +++++++++++++++++   +++++++++++++++++   +++++++++++++++++...                 ...",
"     ++++++++++++   +++++++++++++++++   +++++++++++++++++   +++++++++++++++++   +++++++++++++++++...                 ...",
"+++++++++++++++++   +++++++++++++++++   +++++++++++++++++   +++++++++++++++++   +++++++++++++++++...                 ...",
"+++++++++++++++++   +++++++++++++++++   +++++++++++++++++   +++++++++++++++++   +++++++++++++++++...                 ...",
"     ++++++++++++   @@@@@@@@@@@@@@@@@   +++++++++++++++++   @@@@@@@@@@@@@@@@@   +++++++++++++++++...+++++++++++++++++...",
"     ++++++++++++   @@@@@@@@@@@@@@@@@   +++++++++++++++++   @@@@@@@@@@@@@@@@@   +++++++++++++++++...+++++++++++++++++...",
"     ++++++++++++   @@@@@@@@@@@@@@@@@   +++++++++++++++++   @@@@@@@@@@@@@@@@@   +++++++++++++++++...+++++++++++++++++...",
".......                                                                                     ............................",
".......                                                                                     ............................",
"     ++++++++++@@   @@@@@@@@@@@@@@@@@   +++++++++++++++++   @@@@@@@@@@@@@@@@@+++@@@@@@@@@@@@@@@@@...+++++++++++++++++...",
"     ++++++++++@@   @@@@@@@@@@@@@@@@@   +++++++++++++++++   @@@@@@@@@@@@@@@@@+++@@@@@@@@@@@@@@@@@...+++++++++++++++++...",
"     ++++++++++@@   @@@@@@@@@@@@@@@@@   +++++++++++++++++   @@@@@@@@@@@@@@@@@+++@@@@@@@@@@@@@@@@@...+++++++++++++++++...",
"+++++++++++++++@@   @@@@@@@@@@@@@@@@@   @@@@@@@@@@@@@@@@@   @@@@@@@@@@@@@@@@@+++@@@@@@@@@@@@@@@@@...+++++++++++++++++...",
"+++++++++++++++@@   @@@@@@@@@@@@@@@@@   @@@@@@@@@@@@@@@@@   @@@@@@@@@@@@@@@@@+++@@@@@@@@@@@@@@@@@...+++++++++++++++++...",
"     ++++++++++@@   @@@@@@@@@@@@@@@@@+++@@@@@@@@@@@@@@@@@+++@@@@@@@@@@@@@@@@@+++@@@@@@@@@@@@@@@@@   +++++++++++++++++...",
"     ++++++++++@@   @@@@@@@@@@@@@@@@@+++@@@@@@@@@@@@@@@@@+++@@@@@@@@@@@@@@@@@+++@@@@@@@@@@@@@@@@@   +++++++++++++++++...",
"     ++++++++++@@   @@@@@@@@@@@@@@@@@+++@@@@@@@@@@@@@@@@@+++@@@@@@@@@@@@@@@@@+++@@@@@@@@@@@@@@@@@   +++++++++++++++++...",
"     ++++++++++@@   @@@@@@@@@@@@@@@@@+++@@@@@@@@@@@@@@@@@+++@@@@@@@@@@@@@@@@@+++@@@@@@@@@@@@@@@@@   +++++++++++++++++...",
"     ++++++++++@@   @@@@@@@@@@@@@@@@@+++@@@@@@@@@@@@@@@@@+++@@@@@@@@@@@@@@@@@+++@@@@@@@@@@@@@@@@@   +++++++++++++++++...",
"     ++++++++++@@   @@@@@@@@@@@@@@@@@+++@@@@@@@@@@@@@@@@@+++@@@@@@@@@@@@@@@@@+++@@@@@@@@@@@@@@@@@   +++++++++++++++++...",
"     ++++++++++@@   @@@@@@@@@@@@@@@@@+++@@@@@@@@@@@@@@@@@+++@@@@@@@@@@@@@@@@@+++@@@@@@@@@@@@@@@@@   +++++++++++++++++...",
"     ++++++++++@@   @@@@@@@@@@@@@@@@@+++@@@@@@@@@@@@@@@@@+++@@@@@@@@@@@@@@@@@+++################@   +++++++++++++++++...",
"     ++++++++++@@   @@@@@@@@@@@@@@@@@+++@@@@@@@@@@@@@@@@@+++@@@@@@@@@@@@@@@@@+++################@   +++++++++++++++++...",
"     ++++++++++@@   @@@@@@@@@@@@@@@@@+++@@@@@@@@@@@@@@@@@+++@@@@@@@@@@@@@@@@@+++################@   +++++++++++++++++...",
"     ++++++++++@@   @@@@@@@@@@@@@@@@@+++@@@@@@@@@@@@@@@@@+++@@@@@@@@@@@@@@@@@+++################@   +++++++++++++++++...",
"     ++++++++++@@   @@@@@@@@@@@@@@@@@+++@@@@@@@@@@@@@@@@@+++@@@@@@@@@@@@@@@@@+++################@   +++++++++++++++++...",
"     ++++++++++@@   @@@@@@@@@@@@@@@@@+++@@@@@@@@@@@@@@@@@+++@@@@@@@@@@@@@@@@@+++################@   +++++++++++++++++...",
".......             ++++++++++++++++++++++++++++++++++++++++++++++++++++++++++++################+               ........",
".......             ++++++++++++++++++++++++++++++++++++++++++++++++++++++++++++################+               ........",
".....++++++++++++   @@@@@@@@@@@@@@@@@+++@@@@@@@@@@@@@@@@@+++@@@@@@@@@@@@########$$$$$$$$$$$$$$$$########+++++++++++++...",
".....++++++++++++   @@@@@@@@@@@@@@@@@+++@@@@@@@@@@@@@@@@@+++@@@@@@@@@@@@########$$$$$$$$$$$$$$$$########+++++++++++++...",
".....++++++++++++   @@@@@@@@@@@@@@@@@+++@@@@@@@@@@@@@@@@@+++@@@@@@@@@@@@########$$$$$$$$$$$$$$$$########+++++++++++++...",
".....++++++++++++   @@@@@@@@@@@@@@@@@+++@@@@@@@@@@@@@@@@@+++@@@@@@@@@@@@########$$$$$$$$$$$$$$$$########+++++++++++++...",
".....++++++++++++   @@@@@@@@@@@@@@@@@+++@@@@@@@@@@@@@@@@@+++@@@@@@@@@@@@########$$$$$$$$$$$$$$$$########+++++++++++++...",
"     ++++++++++++   @@@@@@@@@@@@@@@@@+++@@@@@@@@@@@@@@@@@+++@@@@@@@@@@@@########$$$$$$$$$$$$$$$$########+++++++++++++...",
"     ++++++++++++   @@@@@@@@@@@@@@@@@+++@@@@@@@@@@@@@@@@@+++@@@@@@@@@@@@########$$$$$$$$$$$$$$$$########+++++++++++++...",
"     ++++++++++++   @@@@@@@@@@@@@@@@@+++@@@@@@@@@@@@@@@@@+++@@@@@@@@@@@@########$$$$$$$$$$$$$$$$########+++++++++++++...",
".....+++++++++++########################################################$$$$$$$$########%%%%%%%%&&&&&&&&%%%%%%%%+++++...",
".....+++++++++++########################################################$$$$$$$$########%%%%%%%%&&&&&&&&%%%%%%%%+++++...",
"     +++++++++++########################################################$$$$$$$$########%%%%%%%%&&&&&&&&%%%%%%%%+++++...",
"     +++++++++++########################################################$$$$$$$$########%%%%%%%%&&&&&&&&%%%%%%%%+++++...",
"     +++++++++++########################################################$$$$$$$$########%%%%%%%%&&&&&&&&%%%%%%%%+++++...",
"     +++++++++++########################################################$$$$$$$$########%%%%%%%%&&&&&&&&%%%%%%%%+++++...",
"     +++++++++++########################################################$$$$$$$$########%%%%%%%%&&&&&&&&%%%%%%%%+++++...",
"     +++++++++++########################################################$$$$$$$$########%%%%%%%%&&&&&&&&%%%%%%%%+++++...",
"     +++++++++++########$$$$$$$$$$$$$$$$$$$$$$$$$$$$$$$$$$$$$$$$$$$$$$$$$$$$$$$$%%%%%%%%%%%%%%%%&&&&&&&&%%%%%%%%+++++...",
"     +++++++++++########$$$$$$$$$$$$$$$$$$$$$$$$$$$$$$$$$$$$$$$$$$$$$$$$$$$$$$$$%%%%%%%%%%%%%%%%&&&&&&&&%%%%%%%%+++++...",
".......         ########$$$$$$$$$$$$$$$$$$$$$$$$$$$$$$$$$$$$$$$$$$$$$$$$$$$$$$$$%%%%%%%%%%%%%%%%&&&&&&&&%%%%%%%%........",
".......         ########$$$$$$$$$$$$$$$$$$$$$$$$$$$$$$$$$$$$$$$$$$$$$$$$$$$$$$$$%%%%%%%%%%%%%%%%&&&&&&&&%%%%%%%%........",
"     ++++++++++@########$$$$$$$$$$$$$$$$$$$$$$$$$$$$$$$$$$$$$$$$$$$$$$$$$$$$$$$$%%%%%%%%%%%%%%%%&&&&&&&&%%%%%%%%+++++...",
"     ++++++++++@########$$$$$$$$$$$$$$$$$$$$$$$$$$$$$$$$$$$$$$$$$$$$$$$$$$$$$$$$%%%%%%%%%%%%%%%%&&&&&&&&%%%%%%%%+++++...",
"     ++++++++++@########$$$$$$$$$$$$$$$$$$$$$$$$$$$$$$$$$$$$$$$$$$$$$$$$$$$$$$$$%%%%%%%%%%%%%%%%&&&&&&&&%%%%%%%%+++++...",
"     ++++++++++@########$$$$$$$$$$$$$$$$$$$$$$$$$$$$$$$$$$$$$$$$$$$$$$$$$$$$$$$$%%%%%%%%%%%%%%%%&&&&&&&&%%%%%%%%+++++...",
"     ++++++++++@%%%%%%%%&&&&&&&&%%%%%%%%&&&&&&&&%%%%%%%%%%%%%%%%%%%%%%%%&&&&&&&&%%%%%%%%########&&&&&&&&%%%%%%%%+++++...",
"     ++++++++++@%%%%%%%%&&&&&&&&%%%%%%%%&&&&&&&&%%%%%%%%%%%%%%%%%%%%%%%%&&&&&&&&%%%%%%%%########&&&&&&&&%%%%%%%%+++++...",
"     ++++++++++@%%%%%%%%&&&&&&&&%%%%%%%%&&&&&&&&%%%%%%%%%%%%%%%%%%%%%%%%&&&&&&&&%%%%%%%%########&&&&&&&&%%%%%%%%+++++...",
"     ++++++++++@%%%%%%%%&&&&&&&&%%%%%%%%&&&&&&&&%%%%%%%%%%%%%%%%%%%%%%%%&&&&&&&&%%%%%%%%########&&&&&&&&%%%%%%%%+++++...",
"     ++++++++++@%%%%%%%%&&&&&&&&%%%%%%%%&&&&&&&&%%%%%%%%%%%%%%%%%%%%%%%%&&&&&&&&%%%%%%%%########&&&&&&&&%%%%%%%%+++++...",
"     ++++++++++@%%%%%%%%&&&&&&&&%%%%%%%%&&&&&&&&%%%%%%%%%%%%%%%%%%%%%%%%&&&&&&&&%%%%%%%%########&&&&&&&&%%%%%%%%+++++...",
"     ++++++++++@%%%%%%%%&&&&&&&&%%%%%%%%&&&&&&&&%%%%%%%%%%%%%%%%%%%%%%%%&&&&&&&&%%%%%%%%########&&&&&&&&%%%%%%%%+++++...",
"     ++++++++++@%%%%%%%%&&&&&&&&%%%%%%%%&&&&&&&&%%%%%%%%%%%%%%%%%%%%%%%%&&&&&&&&%%%%%%%%########&&&&&&&&%%%%%%%%+++++...",
"     ++++++++++@%%%%%%%%%%%%%%%%@@@@@+++%%%%%%%%%%%%%%%%@+++@@@@@@@@@@@@%%%%%%%%&&&&&&&&&&&&&&&&%%%%%%%%+++++++++++++...",
"     ++++++++++@%%%%%%%%%%%%%%%%@@@@@+++%%%%%%%%%%%%%%%%@+++@@@@@@@@@@@@%%%%%%%%&&&&&&&&&&&&&&&&%%%%%%%%+++++++++++++...",
"     ++++++++++@%%%%%%%%%%%%%%%%@@@@@+++%%%%%%%%%%%%%%%%@+++@@@@@@@@@@@@%%%%%%%%&&&&&&&&&&&&&&&&%%%%%%%%+++++++++++++...",
"     ++++++++++@%%%%%%%%%%%%%%%%@@@@@+++%%%%%%%%%%%%%%%%@+++@@@@@@@@@@@@%%%%%%%%&&&&&&&&&&&&&&&&%%%%%%%%+++++++++++++...",
"     ++++++++++@%%%%%%%%%%%%%%%%@@@@@+++%%%%%%%%%%%%%%%%@+++@@@@@@@@@@@@%%%%%%%%&&&&&&&&&&&&&&&&%%%%%%%%+++++++++++++...",
"     ++++++++++@%%%%%%%%%%%%%%%%@@@@@+++%%%%%%%%%%%%%%%%@+++@@@@@@@@@@@@%%%%%%%%&&&&&&&&&&&&&&&&%%%%%%%%+++++++++++++...",
".......         %%%%%%%%%%%%%%%%++++++++%%%%%%%%%%%%%%%%++++++++++++++++%%%%%%%%&&&&&&&&&&&&&&&&%%%%%%%%        ........",
".......         %%%%%%%%%%%%%%%%++++++++%%%%%%%%%%%%%%%%++++++++++++++++%%%%%%%%&&&&&&&&&&&&&&&&%%%%%%%%        ........",
".....++++++++++++   @@@@@@@@@@@@@@@@@+++@@@@@@@@@@@@@@@@@+++@@@@@@@@@@@@@@@@@+++%%%%%%%%%%%%%%%%@   @@+++++++++++++++...",
".....++++++++++++   @@@@@@@@@@@@@@@@@+++@@@@@@@@@@@@@@@@@+++@@@@@@@@@@@@@@@@@+++%%%%%%%%%%%%%%%%@   @@+++++++++++++++...",
".....++++++++++++   @@@@@@@@@@@@@@@@@+++@@@@@@@@@@@@@@@@@+++@@@@@@@@@@@@@@@@@+++%%%%%%%%%%%%%%%%@   @@+++++++++++++++...",
".....++++++++++++   @@@@@@@@@@@@@@@@@+++@@@@@@@@@@@@@@@@@+++@@@@@@@@@@@@@@@@@+++%%%%%%%%%%%%%%%%@   @@+++++++++++++++...",
".....++++++++++++   @@@@@@@@@@@@@@@@@+++@@@@@@@@@@@@@@@@@+++@@@@@@@@@@@@@@@@@+++%%%%%%%%%%%%%%%%@   @@+++++++++++++++...",
"     ++++++++++++   @@@@@@@@@@@@@@@@@+++@@@@@@@@@@@@@@@@@+++@@@@@@@@@@@@@@@@@+++%%%%%%%%%%%%%%%%@   @@+++++++++++++++...",
"     ++++++++++++   @@@@@@@@@@@@@@@@@+++@@@@@@@@@@@@@@@@@+++@@@@@@@@@@@@@@@@@+++%%%%%%%%%%%%%%%%@   @@+++++++++++++++...",
"     ++++++++++++   @@@@@@@@@@@@@@@@@+++@@@@@@@@@@@@@@@@@+++@@@@@@@@@@@@@@@@@+++%%%%%%%%%%%%%%%%@   @@+++++++++++++++...",
".....++++++++++++   @@@@@@@@@@@@@@@@@+++@@@@@@@@@@@@@@@@@+++@@@@@@@@@@@@@@@@@+++@@@@@@@@@@@@@@@@@   @@+++++++++++++++...",
".....++++++++++++   @@@@@@@@@@@@@@@@@+++@@@@@@@@@@@@@@@@@+++@@@@@@@@@@@@@@@@@+++@@@@@@@@@@@@@@@@@   @@+++++++++++++++...",
"     ++++++++++++   @@@@@@@@@@@@@@@@@+++@@@@@@@@@@@@@@@@@+++@@@@@@@@@@@@@@@@@+++@@@@@@@@@@@@@@@@@   @@+++++++++++++++...",
"     ++++++++++++   @@@@@@@@@@@@@@@@@+++@@@@@@@@@@@@@@@@@+++@@@@@@@@@@@@@@@@@+++@@@@@@@@@@@@@@@@@   @@+++++++++++++++...",
"     ++++++++++++   @@@@@@@@@@@@@@@@@+++@@@@@@@@@@@@@@@@@+++@@@@@@@@@@@@@@@@@+++@@@@@@@@@@@@@@@@@   @@+++++++++++++++...",
"     ++++++++++++   @@@@@@@@@@@@@@@@@+++@@@@@@@@@@@@@@@@@+++@@@@@@@@@@@@@@@@@+++@@@@@@@@@@@@@@@@@...@@+++++++++++++++...",
"     ++++++++++++   @@@@@@@@@@@@@@@@@+++@@@@@@@@@@@@@@@@@+++@@@@@@@@@@@@@@@@@+++@@@@@@@@@@@@@@@@@...@@+++++++++++++++...",
"     ++++++++++++   @@@@@@@@@@@@@@@@@+++@@@@@@@@@@@@@@@@@+++@@@@@@@@@@@@@@@@@+++@@@@@@@@@@@@@@@@@...@@+++++++++++++++...",
"     ++++++++++++   @@@@@@@@@@@@@@@@@+++@@@@@@@@@@@@@@@@@+++@@@@@@@@@@@@@@@@@+++@@@@@@@@@@@@@@@@@...@@+++++++++++++++...",
"     ++++++++++++   @@@@@@@@@@@@@@@@@+++@@@@@@@@@@@@@@@@@+++@@@@@@@@@@@@@@@@@+++@@@@@@@@@@@@@@@@@...@@+++++++++++++++...",
".......               +++++++++++++++++++++++++++++++++++++++++++++++++++++++++++++++++++++++++  ...            ........",
".......               +++++++++++++++++++++++++++++++++++++++++++++++++++++++++++++++++++++++++  ...            ........",
"     ++++++++++@@   @@@@@@@@@@@@@@@@@+++@@@@@@@@@@@@@@@@@+++@@@@@@@@@@@@@@@@@+++@@@@@@@@@@@@@@@@@...+++++++++++++++++...",
"     ++++++++++@@   @@@@@@@@@@@@@@@@@+++@@@@@@@@@@@@@@@@@+++@@@@@@@@@@@@@@@@@+++@@@@@@@@@@@@@@@@@...+++++++++++++++++...",
"     ++++++++++@@   @@@@@@@@@@@@@@@@@+++@@@@@@@@@@@@@@@@@+++@@@@@@@@@@@@@@@@@+++@@@@@@@@@@@@@@@@@...+++++++++++++++++...",
"     ++++++++++@@   @@@@@@@@@@@@@@@@@+++@@@@@@@@@@@@@@@@@+++@@@@@@@@@@@@@@@@@+++@@@@@@@@@@@@@@@@@   +++++++++++++++++...",
"     ++++++++++@@   @@@@@@@@@@@@@@@@@+++@@@@@@@@@@@@@@@@@+++@@@@@@@@@@@@@@@@@+++@@@@@@@@@@@@@@@@@   +++++++++++++++++...",
"     ++++++++++@@   @@@@@@@@@@@@@@@@@+++@@@@@@@@@@@@@@@@@+++@@@@@@@@@@@@@@@@@+++@@@@@@@@@@@@@@@@@   +++++++++++++++++...",
"     ++++++++++@@   @@@@@@@@@@@@@@@@@+++@@@@@@@@@@@@@@@@@+++@@@@@@@@@@@@@@@@@+++@@@@@@@@@@@@@@@@@   +++++++++++++++++...",
"     ++++++++++@@   @@@@@@@@@@@@@@@@@+++@@@@@@@@@@@@@@@@@+++@@@@@@@@@@@@@@@@@+++@@@@@@@@@@@@@@@@@   +++++++++++++++++...",
".....          ++...+++++++++++++++++   +++++++++++++++++   +++++++++++++++++   +++++++++++++++++...                 ...",
".....          ++...+++++++++++++++++   +++++++++++++++++   +++++++++++++++++   +++++++++++++++++...                 ...",
".....          ++...+++++++++++++++++   +++++++++++++++++   +++++++++++++++++   +++++++++++++++++...                 ...",
".....          ++...+++++++++++++++++   +++++++++++++++++   +++++++++++++++++   +++++++++++++++++...                 ...",
".....          ++...+++++++++++++++++   +++++++++++++++++   +++++++++++++++++   +++++++++++++++++...                 ...",
".....          ++...+++++++++++++++++   +++++++++++++++++   +++++++++++++++++   +++++++++++++++++...                 ...",
".....          ++...+++++++++++++++++   +++++++++++++++++   +++++++++++++++++   +++++++++++++++++...                 ...",
"......................                                                                         .........................",
"......................                                                                         .........................",
"......................                                                                         .........................",
"........................................++++++++++++                            ++++++++++++++++++++++++++++++++++++++++",
"........................................++++++++++++                            ++++++++++++++++++++++++++++++++++++++++"};
