/* XPM */
static char * Wall_xpm[] = {
"120 120 8 1",
" 	c #56687E",
".	c #607897",
"+	c #343C45",
"@	c #394554",
"#	c #2B3037",
"$	c #141412",
"%	c #191C1E",
"&	c #24282C",
"    ...    .............................                      ....   .............................                      ",
"    ...    .............................                      ....   .............................                      ",
"    ...    .............................                      ....   .............................                      ",
"    ...    .............................                      ....   .............................                      ",
"    ...    .............................                      ....   .............................                      ",
"    ...    .............................                      ....   .............................                      ",
"    ...    .............................                      ....   .............................                      ",
"++++@@@++++@@@@@@@@@@@@@@@@@@@@@@@@@@@@@++++++++++++++++++++++@@@@+++@@@@@@@@@@@@@@@@@@@@@@@@@@@@@++++++++++++++++++++++",
"++++@@@++++@@@@@@@@@@@@@@@@@@@@@@@@@@@@@++++++++++++++++++++++@@@@+++@@@@@@@@@@@@@@@@@@@@@@@@@@@@@++++++++++++++++++++++",
"++++@@@++++@@@@@@@@@@@@@@@@@@@@@@@@@@@@@++++++++++++++++++++++@@@@+++@@@@@@@@@@@@@@@@@@@@@@@@@@@@@++++++++++++++++++++++",
"++++@@@++++@@@@@@@@@@@@@@@@@@@@@@@@@@@@@++++++++++++++++++++++@@@@+++@@@@@@@@@@@@@@@@@@@@@@@@@@@@@++++++++++++++++++++++",
"++++@@@++++@@@@@@@@@@@@@@@@@@@@@@@@@@@@@++++++++++++++++++++++@@@@+++@@@@@@@@@@@@@@@@@@@@@@@@@@@@@++++++++++++++++++++++",
"++++@@@++++@@@@@@@@@@@@@@@@@@@@@@@@@@@@@++++++++++++++++++++++@@@@+++@@@@@@@@@@@@@@@@@@@@@@@@@@@@@++++++++++++++++++++++",
"++++@@@++++@@@@@@@@@@@@@@@@@@@@@@@@@@@@@++++++++++++++++++++++@@@@+++@@@@@@@@@@@@@@@@@@@@@@@@@@@@@++++++++++++++++++++++",
"++++@@@++++@@@@@@@@@@@@@@@@@@@@@@@@@@@@@++++++++++++++++++++++@@@@+++@@@@@@@@@@@@@@@@@@@@@@@@@@@@@++++++++++++++++++++++",
"########################################################################################################################",
"########################################################################################################################",
"########################################################################################################################",
"$$$$$$$$$$$$$$$$$$$$$$$$$$$$$$$$$$$$$$$$$$$$$$$$$$$$$$$$$$$$$$$$$$$$$$$$$$$$$$$$$$$$$$$$$$$$$$$$$$$$$$$$$$$$$$$$$$$$$$$$",
"$$$$$$$$$$$$$$$$$$$$$$$$$$$$$$$$$$$$$$$$$$$$$$$$$$$$$$$$$$$$$$$$$$$$$$$$$$$$$$$$$$$$$$$$$$$$$$$$$$$$$$$$$$$$$$$$$$$$$$$$",
"$$$$$$$$$$$$$$$$$$$$$$$$$$$$$$$$$$$$$$$$$$$$$$$$$$$$$$$$$$$$$$$$$$$$$$$$$$$$$$$$$$$$$$$$$$$$$$$$$$$$$$$$$$$$$$$$$$$$$$$$",
"$$$$$$$$$$$$$$$$$$$$$$$$$$$$$$$$$$$$$$$$$$$$$$$$$$$$$$$$$$$$$$$$$$$$$$$$$$$$$$$$$$$$$$$$$$$$$$$$$$$$$$$$$$$$$$$$$$$$$$$$",
"%%%%%%%%%%%%%%%&&&&&&&&&&&&&&%%%%&&&&&&&&&&&&&&&&&&&&&&&&&&&&&&&&&&&&&&&&&&&&&&&&&&&&&&&&&&&&&&&&&&&&&%%%%%%%%%%%%%%%%%%",
"%%%%%%%%%%%%%%%&&&&&&&&&&&&&&%%%%&&&&&&&&&&&&&&&&&&&&&&&&&&&&&&&&&&&&&&&&&&&&&&&&&&&&&&&&&&&&&&&&&&&&&%%%%%%%%%%%%%%%%%%",
"%%%%%%%%%%%%%%%&&&&&&&&&&&&&&%%%%&&&&&&&&&&&&&&&&&&&&&&&&&&&&&&&&&&&&&&&&&&&&&&&&&&&&&&&&&&&&&&&&&&&&&%%%%%%%%%%%%%%%%%%",
"%%%%%%%%%%%%%%%&&&&&&&&&&&&&&%%%%&&&&&&&&&&&&&&&&&&&&&&&&&&&&&&&&&&&&&&&&&&&&&&&&&&&&&&&&&&&&&&&&&&&&&%%%%%%%%%%%%%%%%%%",
"%%%%%%%%%%%%%%%&&&&&&&&&&&&&&%%%%&&&&&&&&&&&&&&&&&&&&&&&&&&&&&&&&&&&&&&&&&&&&&&&&&&&&&&&&&&&&&&&&&&&&&%%%%%%%%%%%%%%%%%%",
"%%%%%%%%%%%%%%%&&&&&&&&&&&&&&%%%%&&&&&&&&&&&&&&&&&&&&&&&&&&&&&&&&&&&&&&&&&&&&&&&&&&&&&&&&&&&&&&&&&&&&&%%%%%%%%%%%%%%%%%%",
"%%%%%%%%%%%%%%%&&&&&&&&&&&&&&%%%%&&&&&&&&&&&&&&&&&&&&&&&&&&&&&&&&&&&&&&&&&&&&&&&&&&&&&&&&&&&&&&&&&&&&&%%%%%%%%%%%%%%%%%%",
"%%%%%%%%%%%%%%%%%%%%%%%%%%%%%%%%%%%%%%%%%%%%%%%%%%%%%%%%%%%%%%%%%%%%%%%%%%%%%%%%%%%%%%%%%%%%%%%%%%%%%%%%%%%%%%%%%%%%%%%%",
"%%%%%%%%%%%%%%%%%%%%%%%%%%%%%%%%%%%%%%%%%%%%%%%%%%%%%%%%%%%%%%%%%%%%%%%%%%%%%%%%%%%%%%%%%%%%%%%%%%%%%%%%%%%%%%%%%%%%%%%%",
"%%%%%%%%%%%%%%%%%%%%%%%%%%%%%%%%%%%%%%%%%%%%%%%%%%%%%%%%%%%%%%%%%%%%%%%%%%%%%%%%%%%%%%%%%%%%%%%%%%%%%%%%%%%%%%%%%%%%%%%%",
"%%%%%%%%%%%%%%%%%%%%%%%%%%%%%%%%%%%%%%%%%%%%%%%%%%%%%%%%%%%%%%%%%%%%%%%%%%%%%%%%%%%%%%%%%%%%%%%%%%%%%%%%%%%%%%%%%%%%%%%%",
"####%%%+++++++++++++++++++++++++++++####++++##################%%%%+++++++++++++++++++++++++++++++++++++++++++%%%%###&&&&",
"####%%%+++++++++++++++++++++++++++++####++++##################%%%%+++++++++++++++++++++++++++++++++++++++++++%%%%###&&&&",
"####%%%+++++++++++++++++++++++++++++####++++##################%%%%+++++++++++++++++++++++++++++++++++++++++++%%%%###&&&&",
"####&&&+++++++++++++++++++++++++++++####++++##################&&&&+++++++++++++++++++++++++++++++++++++++++++&&&&###&&&&",
"####&&&+++++++++++++++++++++++++++++####++++##################&&&&+++++++++++++++++++++++++++++++++++++++++++&&&&###&&&&",
"####&&&+++++++++++++++++++++++++++++####++++##################&&&&+++++++++++++++++++++++++++++++++++++++++++&&&&###&&&&",
"####&&&+++++++++++++++++++++++++++++####++++##################&&&&+++++++++++++++++++++++++++++++++++++++++++&&&&###&&&&",
"####&&&+++++++++++++++++++++++++++++####++++##################&&&&+++++++++++++++++++++++++++++++++++++++++++&&&&###&&&&",
"####&&&+++++++++++++++++++++++++++++####++++##################&&&&+++++++++++++++++++++++++++++++++++++++++++&&&&###&&&&",
"####&&&+++++++++++++++++++++++++++++####++++##################&&&&+++++++++++++++++++++++++++++++++++++++++++&&&&###&&&&",
"####&&&+++++++++++++++++++++++++++++####++++##################&&&&+++++++++++++++++++++++++++++++++++++++++++&&&&###&&&&",
"&&&&&&&&&&&&&&&&&&&&&&&&&&&&&&&&&&&&&&&&&&&&&&&&&&&&&&&&&&&&&&&&&&&&&&&&&&&&&&&&&&&&&&&&&&&&&&&&&&&&&&&&&&&&&&&&&&&&%%%%",
"&&&&&&&&&&&&&&&&&&&&&&&&&&&&&&&&&&&&&&&&&&&&&&&&&&&&&&&&&&&&&&&&&&&&&&&&&&&&&&&&&&&&&&&&&&&&&&&&&&&&&&&&&&&&&&&&&&&&%%%%",
"&&&&&&&&&&&&&&&&&&&&&&&&&&&&&&&&&&&&&&&&&&&&&&&&&&&&&&&&&&&&&&&&&&&&&&&&&&&&&&&&&&&&&&&&&&&&&&&&&&&&&&&&&&&&&&&&&&&&%%%%",
"+++++++++++++++++++++++++++++####@@@@@@@@@@@@@@++++@@@@+++++++++++++++++++++++++++++++++++++++++++++++++++++++++++++####",
"+++++++++++++++++++++++++++++####@@@@@@@@@@@@@@++++@@@@+++++++++++++++++++++++++++++++++++++++++++++++++++++++++++++####",
"+++++++++++++++++++++++++++++####@@@@@@@@@@@@@@++++@@@@+++++++++++++++++++++++++++++++++++++++++++++++++++++++++++++####",
"+++++++++++++++++++++++++++++####@@@@@@@@@@@@@@++++@@@@+++++++++++++++++++++++++++++++++++++++++++++++++++++++++++++####",
"+++++++++++++++++++++++++++++####@@@@@@@@@@@@@@++++@@@@+++++++++++++++++++++++++++++++++++++++++++++++++++++++++++++####",
"+++++++++++++++++++++++++++++####@@@@@@@@@@@@@@++++@@@@+++++++++++++++++++++++++++++++++++++++++++++++++++++++++++++####",
"+++++++++++++++++++++++++++++####@@@@@@@@@@@@@@++++@@@@+++++++++++++++++++++++++++++++++++++++++++++++++++++++++++++####",
"+++++++++++++++++++++++++++++####@@@@@@@@@@@@@@++++@@@@+++++++++++++++++++++++++++++++++++++++++++++++++++++++++++++####",
"+++++++++++++++++++++++++++++&&&&@@@@@@@@@@@@@@++++@@@@+++++++++++++++++++++++++++++++++++++++++++++++++++++++++++++####",
"+++++++++++++++++++++++++++++&&&&@@@@@@@@@@@@@@++++@@@@+++++++++++++++++++++++++++++++++++++++++++++++++++++++++++++####",
"+++++++++++++++++++++++++++++&&&&@@@@@@@@@@@@@@++++@@@@+++++++++++++++++++++++++++++++++++++++++++++++++++++++++++++####",
"&&&&&&&&&&&&&&&&&&&&&&&&&&&&&&&&&&&&&&&&&&&&################################&&&&&&&&&&&&&&&&&&&&&&&&&&&&&&&&&&&&&&&&%%%%",
"&&&&&&&&&&&&&&&&&&&&&&&&&&&&&&&&&&&&&&&&&&&&################################&&&&&&&&&&&&&&&&&&&&&&&&&&&&&&&&&&&&&&&&%%%%",
"&&&&&&&&&&&&&&&&&&&&&&&&&&&&&&&&&&&&&&&&&&&&################################&&&&&&&&&&&&&&&&&&&&&&&&&&&&&&&&&&&&&&&&%%%%",
"&&&&&&&&&&&&&&&&&&&&&&&&&&&&&&&&&&&&&&&&&&&&################################&&&&&&&&&&&&&&&&&&&&&&&&&&&&&&&&&&&&&&&&%%%%",
"++++&&&@@@@@@@@@@@@@@@@@@@@@@@@@@@@@@@@@@@@@@@@@@@@@@@@@@@@@@@####@@@@@@@@@@@@@@@@@@@@@@@@@@@@@@@@@@@@@@@@@@@&&&&+++++++",
"++++&&&@@@@@@@@@@@@@@@@@@@@@@@@@@@@@@@@@@@@@@@@@@@@@@@@@@@@@@@####@@@@@@@@@@@@@@@@@@@@@@@@@@@@@@@@@@@@@@@@@@@&&&&+++++++",
"++++&&&@@@@@@@@@@@@@@@@@@@@@@@@@@@@@@@@@@@@@@@@@@@@@@@@@@@@@@@####@@@@@@@@@@@@@@@@@@@@@@@@@@@@@@@@@@@@@@@@@@@&&&&+++++++",
"####&&&+++++++++++++++++++++++++++++++++++++@@@@@@@@@@@@@@@@@@####+++++++++++++++++++++++++++++++++++++++++++&&&&#######",
"####&&&+++++++++++++++++++++++++++++++++++++@@@@@@@@@@@@@@@@@@####+++++++++++++++++++++++++++++++++++++++++++&&&&#######",
"####&&&+++++++++++++++++++++++++++++++++++++@@@@@@@@@@@@@@@@@@####+++++++++++++++++++++++++++++++++++++++++++&&&&#######",
"####&&&+++++++++++++++++++++++++++++++++++++@@@@@@@@@@@@@@@@@@####+++++++++++++++++++++++++++++++++++++++++++&&&&#######",
"####&&&+++++++++++++++++++++++++++++++++++++@@@@@@@@@@@@@@@@@@&&&&+++++++++++++++++++++++++++++++++++++++++++&&&&#######",
"####&&&+++++++++++++++++++++++++++++++++++++@@@@@@@@@@@@@@@@@@&&&&+++++++++++++++++++++++++++++++++++++++++++&&&&#######",
"####&&&+++++++++++++++++++++++++++++++++++++@@@@@@@@@@@@@@@@@@&&&&+++++++++++++++++++++++++++++++++++++++++++&&&&#######",
"####&&&+++++++++++++++++++++++++++++++++++++@@@@@@@@@@@@@@@@@@&&&&+++++++++++++++++++++++++++++++++++++++++++&&&&#######",
"&&&&&&&&&&&&&&&&&&&&&&&&&&&&&&&&&&&&&&&&&&&&&&&&&&&&&&&&&&&&&&&&&&&&&&&&&&&&&&&&&&&&&&&&&&&&&&&&&&&&&&&&&&&&&&&&&&&&%%%%",
"&&&&&&&&&&&&&&&&&&&&&&&&&&&&&&&&&&&&&&&&&&&&&&&&&&&&&&&&&&&&&&&&&&&&&&&&&&&&&&&&&&&&&&&&&&&&&&&&&&&&&&&&&&&&&&&&&&&&%%%%",
"&&&&&&&&&&&&&&&&&&&&&&&&&&&&&&&&&&&&&&&&&&&&&&&&&&&&&&&&&&&&&&&&&&&&&&&&&&&&&&&&&&&&&&&&&&&&&&&&&&&&&&&&&&&&&&&&&&&&%%%%",
"+++++++++++++++++++++++++++++&&&&@@@@@@@@@@@@@@@@@@+++++++++++++++++++++++++++++++++++++++++++++++++++++++++++++++++####",
"+++++++++++++++++++++++++++++&&&&@@@@@@@@@@@@@@@@@@+++++++++++++++++++++++++++++++++++++++++++++++++++++++++++++++++####",
"+++++++++++++++++++++++++++++&&&&@@@@@@@@@@@@@@@@@@+++++++++++++++++++++++++++++++++++++++++++++++++++++++++++++++++####",
"+++++++++++++++++++++++++++++&&&&@@@@@@@@@@@@@@@@@@+++++++++++++++++++++++++++++++++++++++++++++++++++++++++++++++++####",
"#############################&&&&+++++++####+++#####################################################################&&&&",
"#############################&&&&+++++++####+++#####################################################################&&&&",
"#############################&&&&+++++++####+++#####################################################################&&&&",
"#############################&&&&+++++++####+++#####################################################################&&&&",
"#############################%%%%+++++++####+++#####################################################################&&&&",
"#############################%%%%+++++++####+++#####################################################################&&&&",
"#############################%%%%+++++++####+++#####################################################################&&&&",
"%%%%%%%%%%%%%%%%%%%%%%%%%%%%%%%%%%%%%%%%%%%%%%%%%%%%%%%%%%%%%%%%%%%%%%%%%%%%%%%%%%%%%%%%%%%%%%%%%%%%%%%%%%%%%%%%%%%%%%%%",
"%%%%%%%%%%%%%%%%%%%%%%%%%%%%%%%%%%%%%%%%%%%%%%%%%%%%%%%%%%%%%%%%%%%%%%%%%%%%%%%%%%%%%%%%%%%%%%%%%%%%%%%%%%%%%%%%%%%%%%%%",
"%%%%%%%%%%%%%%%%%%%%%%%%%%%%%%%%%%%%%%%%%%%%%%%%%%%%%%%%%%%%%%%%%%%%%%%%%%%%%%%%%%%%%%%%%%%%%%%%%%%%%%%%%%%%%%%%%%%%%%%%",
"%%%%%%%%%%%%%%%%%%%%%%%%%%%%%%%%%%%%%%%%%%%%%%%%%%%%%%%%%%%%%%%%%%%%%%%%%%%%%%%%%%%%%%%%%%%%%%%%%%%%%%%%%%%%%%%%%%%%%%%%",
"&&&&%%%#############################&&&&####&&&&&&&&&&&&&&&&&&%%%%###########################################%%%%&&&&&&&",
"&&&&%%%#############################&&&&####&&&&&&&&&&&&&&&&&&%%%%###########################################%%%%&&&&&&&",
"&&&&%%%#############################&&&&####&&&&&&&&&&&&&&&&&&%%%%###########################################%%%%&&&&&&&",
"&&&&%%%#############################&&&&####&&&&&&&&&&&&&&&&&&%%%%###########################################%%%%&&&&&&&",
"&&&&%%%#############################&&&&####&&&&&&&&&&&&&&&&&&%%%%###########################################%%%%&&&&&&&",
"&&&&%%%#############################&&&&####&&&&&&&&&&&&&&&&&&%%%%###########################################%%%%&&&&&&&",
"&&&&%%%#############################&&&&####&&&&&&&&&&&&&&&&&&%%%%###########################################%%%%&&&&&&&",
"&&&&%%%#############################&&&&####&&&&&&&&&&&&&&&&&&%%%%###########################################%%%%&&&&&&&",
"&&&&%%%#############################&&&&####&&&&&&&&&&&&&&&&&&%%%%###########################################%%%%&&&&&&&",
"&&&&%%%#############################&&&&####&&&&&&&&&&&&&&&&&&%%%%###########################################%%%%&&&&&&&",
"&&&&%%%#############################&&&&####&&&&&&&&&&&&&&&&&&%%%%###########################################%%%%&&&&&&&",
"%%%%%%%%%%%%%%%%%%%%%%%%%%%%%%%%%%%%%%%%%%%%%%%%%%%%%%%%%%%%%%%%%%%%%%%%%%%%%%%%%%%%%%%%%%%%%%%%%%%%%%%%%%%%%%%%%%%%%%%%",
"%%%%%%%%%%%%%%%%%%%%%%%%%%%%%%%%%%%%%%%%%%%%%%%%%%%%%%%%%%%%%%%%%%%%%%%%%%%%%%%%%%%%%%%%%%%%%%%%%%%%%%%%%%%%%%%%%%%%%%%%",
"%%%%%%%%%%%%%%%%%%%%%%%%%%%%%%%%%%%%%%%%%%%%%%%%%%%%%%%%%%%%%%%%%%%%%%%%%%%%%%%%%%%%%%%%%%%%%%%%%%%%%%%%%%%%%%%%%%%%%%%%",
"+++++++@@@@@@@@@@@@@@@@@@@@@@@@@@@@@@@@@@@@@@@@@@@@@@@@@@@@@@@@@@@@@@@@@@@@@@@@@@@@@@@@@@@@@@@@@@@@@@@@@@@@@@+++++++####",
"+++++++@@@@@@@@@@@@@@@@@@@@@@@@@@@@@@@@@@@@@@@@@@@@@@@@@@@@@@@@@@@@@@@@@@@@@@@@@@@@@@@@@@@@@@@@@@@@@@@@@@@@@@+++++++####",
"+++++++@@@@@@@@@@@@@@@@@@@@@@@@@@@@@@@@@@@@@@@@@@@@@@@@@@@@@@@@@@@@@@@@@@@@@@@@@@@@@@@@@@@@@@@@@@@@@@@@@@@@@@+++++++####",
"+++++++@@@@@@@@@@@@@@@@@@@@@@@@@@@@@@@@@@@@@@@@@@@@@@@@@@@@@@@@@@@@@@@@@@@@@@@@@@@@@@@@@@@@@@@@@@@@@@@@@@@@@@+++++++####",
"+++++++@@@@@@@@@@@@@@@@@@@@@@@@@@@@@@@@@@@@@@@@@@@@@@@@@@@@@@@@@@@@@@@@@@@@@@@@@@@@@@@@@@@@@@@@@@@@@@@@@@@@@@+++++++####",
"+++++++@@@@@@@@@@@@@@@@@@@@@@@@@@@@@@@@@@@@@@@@@@@@@@@@@@@@@@@@@@@@@@@@@@@@@@@@@@@@@@@@@@@@@@@@@@@@@@@@@@@@@@+++++++####",
"+++++++@@@@@@@@@@@@@@@@@@@@@@@@@@@@@@@@@@@@@@@@@@@@@@@@@@@@@@@@@@@@@@@@@@@@@@@@@@@@@@@@@@@@@@@@@@@@@@@@@@@@@@+++++++####",
"+++++++@@@@@@@@@@@@@@@@@@@@@@@@@@@@@@@@@@@@@@@@@@@@@@@@@@@@@@@@@@@@@@@@@@@@@@@@@@@@@@@@@@@@@@@@@@@@@@@@@@@@@@+++++++####",
"$$$$$$$$$$$%%%%%%%%%%%%%%%%%%%%%%%%%%%%%%%%%%%%%%%%%%%%%%%%%%%%%%%%%%%%%%%%%%%%%%%%%%%%%%%%%%%%%%%%%%%%%%$$$$$$$$$$$$$$$",
"$$$$$$$$$$$%%%%%%%%%%%%%%%%%%%%%%%%%%%%%%%%%%%%%%%%%%%%%%%%%%%%%%%%%%%%%%%%%%%%%%%%%%%%%%%%%%%%%%%%%%%%%%$$$$$$$$$$$$$$$",
"$$$$$$$$$$$%%%%%%%%%%%%%%%%%%%%%%%%%%%%%%%%%%%%%%%%%%%%%%%%%%%%%%%%%%%%%%%%%%%%%%%%%%%%%%%%%%%%%%%%%%%%%%$$$$$$$$$$$$$$$",
"$$$$$$$$$$$%%%%%%%%%%%%%%%%%%%%%%%%%%%%%%%%%%%%%%%%%%%%%%%%%%%%%%%%%%%%%%%%%%%%%%%%%%%%%%%%%%%%%%%%%%%%%%$$$$$$$$$$$$$$$",
"$$$$$$$$$$$%%%%%%%%%%%%%%%%%%%%%%%%%%%%%%%%%%%%%%%%%%%%%%%%%%%%%%%%%%%%%%%%%%%%%%%%%%%%%%%%%%%%%%%%%%%%%%$$$$$$$$$$$$$$$",
"$$$$$$$$$$$%%%%%%%%%%%%%%%%%%%%%%%%%%%%%%%%%%%%%%%%%%%%%%%%%%%%%%%%%%%%%%%%%%%%%%%%%%%%%%%%%%%%%%%%%%%%%%$$$$$$$$$$$$$$$",
"$$$$$$$$$$$%%%%%%%%%%%%%%%%%%%%%%%%%%%%%%%%%%%%%%%%%%%%%%%%%%%%%%%%%%%%%%%%%%%%%%%%%%%%%%%%%%%%%%%%%%%%%%$$$$$$$$$$$$$$$"};
